<svg width="530" height="525" viewBox="0 0 530 525" fill="none" xmlns="http://www.w3.org/2000/svg">
<g clip-path="url(#clip0_120_80)">
<path d="M517.075 219.673C507.974 301.764 460.419 374.54 399.542 421.858C394.601 425.702 389.539 429.389 384.353 432.92C383.703 433.364 383.053 433.807 382.403 434.241C346.228 458.429 304.784 473.923 263.149 469.091C229.323 465.17 196.108 445.116 176.284 415.159C175.91 414.597 175.535 414.017 175.175 413.446C167.1 400.965 161.624 386.634 159.145 371.497C155.581 349.091 158.35 324.315 147.276 305.199C132.913 280.398 102.153 276.358 75.6837 277.287C50.9427 278.148 26.24 281.131 1.52958 282.682C1.02482 282.716 0.51241 282.741 0 282.776V19.3381C0.00553953 14.2112 1.83559 9.29606 5.08872 5.67081C8.34186 2.04555 12.7525 0.00617318 17.3531 0H124.982C130.19 0.758523 133.877 12.4006 139.07 12.7841C141.318 12.9545 143.564 13.0909 145.807 13.1932C157.608 13.7386 169.394 13.5085 181.164 12.7841C188.039 12.3665 196.444 0.698864 203.312 0H402.051C403.534 0.545455 405.003 1.11648 406.471 1.70455C412.798 4.2454 418.979 7.2169 424.979 10.6023C491.179 48.0085 526.176 137.582 517.075 219.673Z" fill="#3F3D56"/>
<path d="M433.935 110.063C403.121 142.023 362.304 162.528 320.378 167.446C316.264 167.932 312.139 168.264 308.004 168.443C307.086 168.486 306.169 168.511 305.243 168.537C303.744 168.58 302.238 168.597 300.739 168.597C298.941 168.597 297.144 168.568 295.347 168.511C284.943 168.173 274.581 166.911 264.358 164.736C263.983 164.651 263.616 164.574 263.241 164.489C261.627 164.139 260.019 163.764 258.415 163.364C255.341 162.605 252.282 161.764 249.238 160.841C248.251 160.543 247.265 160.236 246.278 159.912C244.863 159.46 243.456 158.983 242.049 158.497C241.521 158.31 240.993 158.131 240.465 157.935C239.93 157.747 239.395 157.551 238.859 157.347C235.594 156.153 232.356 154.858 229.147 153.46C210.868 145.591 193.756 134.699 178.387 121.151C176.261 119.267 174.105 117.29 172.024 115.372C160.843 105.094 149.28 94.4659 135.184 92.1477C119.965 89.6506 105.342 97.3722 91.209 104.838C86.4137 107.369 81.4579 109.986 76.5556 112.176C52.6246 122.681 26.2507 124.086 1.52958 116.173C1.01717 116.02 0.504762 115.849 0 115.679V113.898C0.504762 114.068 1.01717 114.239 1.52958 114.401C26.0435 122.353 52.2327 121.013 75.9896 110.591C80.846 108.426 85.7866 105.818 90.5589 103.295C104.899 95.7188 119.728 87.8864 135.406 90.4602C149.922 92.8466 161.654 103.628 172.996 114.06C175.076 115.969 177.225 117.946 179.336 119.821C194.602 133.282 211.604 144.1 229.766 151.909H229.774C232.848 153.239 235.961 154.491 239.089 155.651C239.54 155.812 239.991 155.974 240.443 156.145C240.947 156.324 241.46 156.503 241.965 156.682C243.257 157.142 244.552 157.58 245.85 157.994C247.119 158.42 248.396 158.824 249.681 159.205H249.689C252.978 160.202 256.287 161.102 259.616 161.906C261.123 162.281 262.629 162.622 264.151 162.946C264.48 163.023 264.816 163.091 265.153 163.159C274.961 165.222 284.897 166.436 294.873 166.79H294.88C298.345 166.909 301.804 166.923 305.259 166.832C306.161 166.807 307.056 166.773 307.951 166.739C311.859 166.568 315.762 166.261 319.66 165.818H319.667C361.463 161.054 402.181 140.668 432.895 108.81C433.044 108.657 433.241 108.577 433.444 108.586C433.646 108.595 433.837 108.693 433.974 108.859C434.112 109.025 434.185 109.244 434.178 109.47C434.17 109.695 434.083 109.909 433.935 110.063H433.935Z" fill="#6C63FF"/>
<path d="M0.237083 77.5057C0.190007 77.7238 0.109826 77.9313 0 78.1193V75.7415C0.279268 76.2738 0.364152 76.9055 0.237083 77.5057Z" fill="#FF6584"/>
<path d="M6.27187 86.5329C6.42533 85.0025 5.77525 83.6654 4.81989 83.5465C3.86454 83.4275 2.96567 84.5717 2.81222 86.1021C2.65876 87.6326 3.30883 88.9697 4.26419 89.0886C5.21955 89.2076 6.11842 88.0634 6.27187 86.5329Z" fill="#E6E6E6"/>
<path d="M8.40023 104.608C8.55368 103.077 7.90361 101.74 6.94825 101.621C5.99289 101.502 5.09402 102.647 4.94057 104.177C4.78712 105.707 5.43719 107.044 6.39255 107.163C7.34791 107.282 8.24678 106.138 8.40023 104.608Z" fill="#3F3D56"/>
<path d="M386.189 248.749C386.563 247.106 385.148 245.289 383.028 244.69C380.908 244.092 378.887 244.939 378.514 246.582C378.14 248.225 379.555 250.042 381.675 250.641C383.794 251.239 385.815 250.392 386.189 248.749Z" fill="white"/>
<path d="M360.306 248.563C360.68 246.92 359.264 245.103 357.145 244.504C355.025 243.906 353.004 244.753 352.63 246.396C352.257 248.039 353.672 249.856 355.792 250.455C357.911 251.053 359.932 250.206 360.306 248.563Z" fill="#3F3D56"/>
<path d="M391.046 272.68C391.42 271.037 390.005 269.219 387.885 268.621C385.766 268.022 383.745 268.869 383.371 270.512C382.997 272.155 384.413 273.973 386.532 274.571C388.652 275.17 390.673 274.323 391.046 272.68Z" fill="#FF6584"/>
<path d="M397.08 281.703C397.233 280.173 396.583 278.836 395.628 278.717C394.673 278.598 393.774 279.742 393.62 281.273C393.467 282.803 394.117 284.14 395.072 284.259C396.028 284.378 396.926 283.234 397.08 281.703Z" fill="#E6E6E6"/>
<path d="M399.208 299.778C399.362 298.248 398.712 296.911 397.756 296.792C396.801 296.673 395.902 297.817 395.749 299.347C395.595 300.878 396.245 302.215 397.201 302.334C398.156 302.453 399.055 301.309 399.208 299.778Z" fill="#3F3D56"/>
<path d="M372.746 265.333C372.9 263.802 372.25 262.465 371.294 262.346C370.339 262.227 369.44 263.372 369.287 264.902C369.133 266.432 369.783 267.77 370.739 267.888C371.694 268.007 372.593 266.863 372.746 265.333Z" fill="#E6E6E6"/>
<path d="M385.772 259.88C385.925 258.349 385.275 257.012 384.32 256.893C383.365 256.774 382.466 257.918 382.312 259.449C382.159 260.979 382.809 262.316 383.764 262.435C384.72 262.554 385.619 261.41 385.772 259.88Z" fill="#FF6584"/>
<path d="M369.725 245.147C369.878 243.616 369.228 242.279 368.273 242.16C367.318 242.041 366.419 243.186 366.265 244.716C366.112 246.246 366.762 247.584 367.717 247.703C368.673 247.821 369.571 246.677 369.725 245.147Z" fill="#3F3D56"/>
<path d="M38.2093 46.7606C38.583 45.1175 37.1677 43.3003 35.0482 42.7017C32.9287 42.1032 30.9076 42.9499 30.5339 44.593C30.1603 46.2361 31.5756 48.0534 33.6951 48.6519C35.8146 49.2505 37.8357 48.4037 38.2093 46.7606Z" fill="white"/>
<path d="M12.326 46.5747C12.6997 44.9316 11.2844 43.1144 9.1649 42.5158C7.04539 41.9172 5.02429 42.764 4.65063 44.4071C4.27697 46.0502 5.69226 47.8674 7.81176 48.466C9.93127 49.0646 11.9524 48.2178 12.326 46.5747Z" fill="#3F3D56"/>
<path d="M43.0665 70.6912C43.4401 69.0481 42.0248 67.2308 39.9053 66.6323C37.7858 66.0337 35.7647 66.8805 35.391 68.5236C35.0174 70.1667 36.4327 71.9839 38.5522 72.5825C40.6717 73.181 42.6928 72.3343 43.0665 70.6912Z" fill="#FF6584"/>
<path d="M49.1002 79.7148C49.2536 78.1844 48.6036 76.8473 47.6482 76.7283C46.6928 76.6094 45.794 77.7536 45.6405 79.284C45.4871 80.8144 46.1371 82.1515 47.0925 82.2705C48.0479 82.3894 48.9467 81.2452 49.1002 79.7148Z" fill="#E6E6E6"/>
<path d="M51.2285 97.7896C51.382 96.2592 50.7319 94.9221 49.7765 94.8032C48.8212 94.6842 47.9223 95.8284 47.7689 97.3588C47.6154 98.8892 48.2655 100.226 49.2208 100.345C50.1762 100.464 51.0751 99.32 51.2285 97.7896Z" fill="#3F3D56"/>
<path d="M24.7665 63.3442C24.92 61.8138 24.2699 60.4768 23.3145 60.3578C22.3592 60.2388 21.4603 61.383 21.3068 62.9135C21.1534 64.4439 21.8035 65.7809 22.7588 65.8999C23.7142 66.0189 24.613 64.8747 24.7665 63.3442Z" fill="#E6E6E6"/>
<path d="M37.7922 57.891C37.9456 56.3606 37.2956 55.0235 36.3402 54.9045C35.3849 54.7856 34.486 55.9298 34.3325 57.4602C34.1791 58.9906 34.8292 60.3277 35.7845 60.4467C36.7399 60.5656 37.6387 59.4214 37.7922 57.891Z" fill="#FF6584"/>
<path d="M21.7451 43.1582C21.8986 41.6277 21.2485 40.2907 20.2932 40.1717C19.3378 40.0527 18.4389 41.1969 18.2855 42.7274C18.132 44.2578 18.7821 45.5948 19.7375 45.7138C20.6928 45.8328 21.5917 44.6886 21.7451 43.1582Z" fill="#3F3D56"/>
<path d="M121.122 168.831C122.812 168.831 124.181 167.305 124.181 165.422C124.181 163.539 122.812 162.013 121.122 162.013C119.433 162.013 118.063 163.539 118.063 165.422C118.063 167.305 119.433 168.831 121.122 168.831Z" fill="white"/>
<path d="M46.1726 201.218C47.0174 201.218 47.7022 200.454 47.7022 199.513C47.7022 198.572 47.0174 197.808 46.1726 197.808C45.3278 197.808 44.643 198.572 44.643 199.513C44.643 200.454 45.3278 201.218 46.1726 201.218Z" fill="white"/>
<path d="M349.795 328.206C350.639 328.206 351.324 327.443 351.324 326.502C351.324 325.56 350.639 324.797 349.795 324.797C348.95 324.797 348.265 325.56 348.265 326.502C348.265 327.443 348.95 328.206 349.795 328.206Z" fill="white"/>
<path d="M152.478 249.797C153.323 249.797 154.008 249.034 154.008 248.093C154.008 247.151 153.323 246.388 152.478 246.388C151.634 246.388 150.949 247.151 150.949 248.093C150.949 249.034 151.634 249.797 152.478 249.797Z" fill="white"/>
<path d="M180.011 71.6722C180.856 71.6722 181.541 70.909 181.541 69.9676C181.541 69.0262 180.856 68.2631 180.011 68.2631C179.166 68.2631 178.481 69.0262 178.481 69.9676C178.481 70.909 179.166 71.6722 180.011 71.6722Z" fill="white"/>
<path d="M430.098 137.297C430.942 137.297 431.627 136.534 431.627 135.593C431.627 134.651 430.942 133.888 430.098 133.888C429.253 133.888 428.568 134.651 428.568 135.593C428.568 136.534 429.253 137.297 430.098 137.297Z" fill="white"/>
<path d="M74.4698 48.6608C75.3146 48.6608 75.9994 47.8976 75.9994 46.9563C75.9994 46.0149 75.3146 45.2517 74.4698 45.2517C73.6251 45.2517 72.9402 46.0149 72.9402 46.9563C72.9402 47.8976 73.6251 48.6608 74.4698 48.6608Z" fill="white"/>
<path d="M352.854 40.1381C354.543 40.1381 355.913 38.6118 355.913 36.729C355.913 34.8462 354.543 33.3199 352.854 33.3199C351.164 33.3199 349.794 34.8462 349.794 36.729C349.794 38.6118 351.164 40.1381 352.854 40.1381Z" fill="white"/>
<path d="M489.749 489.716H488.22C488.22 479.881 479.952 470.259 463.639 461.114C447.678 452.165 424.795 444.119 395.642 437.207C391.328 436.185 386.915 435.196 382.403 434.242C359.062 429.298 333.128 425.25 305.35 422.173C299.607 421.534 293.782 420.94 287.875 420.392C285.963 420.205 284.036 420.034 282.101 419.855C276.724 419.386 271.292 418.949 265.803 418.543C237.154 416.429 207.075 415.278 176.284 415.159C174.472 415.142 172.652 415.142 170.831 415.142C130.733 415.142 121.678 419.361 121.143 422.906C119.774 431.872 166.151 449.881 210.998 467.31C260.641 486.588 311.66 506.412 329.036 523.295C329.625 523.866 330.175 524.438 330.688 525H328.585C328.026 524.438 327.422 523.866 326.78 523.295C308.432 506.966 256.97 486.972 210.493 468.912C153.18 446.651 118.13 432.503 119.629 422.616C120.279 418.338 126.688 413.438 170.831 413.438C172.277 413.438 173.73 413.438 175.175 413.446C205.958 413.54 236.037 414.665 264.717 416.761C270.323 417.162 275.873 417.605 281.367 418.091C283.409 418.27 285.443 418.449 287.47 418.645C293.527 419.207 299.505 419.815 305.404 420.469C333.915 423.622 360.507 427.798 384.353 432.92C388.3 433.773 392.169 434.648 395.963 435.545C456.442 449.881 489.749 469.116 489.749 489.716Z" fill="#E6E6E6"/>
<path d="M466.043 485.607H464.513C464.513 478.329 437.831 470.536 398.11 470.536C358.39 470.536 331.708 478.329 331.708 485.607H330.178C330.178 475.106 364.718 468.831 398.11 468.831C431.503 468.831 466.043 475.106 466.043 485.607Z" fill="#E6E6E6"/>
<path d="M439.354 490.564H437.824C437.824 486.453 421.606 481.873 398.333 481.873C375.06 481.873 358.842 486.453 358.842 490.564H357.312C357.312 483.812 378.447 480.168 398.333 480.168C418.219 480.168 439.354 483.812 439.354 490.564Z" fill="#E6E6E6"/>
<path d="M275.61 114.286C292.505 114.286 306.201 99.0227 306.201 80.1949C306.201 61.367 292.505 46.1039 275.61 46.1039C258.714 46.1039 245.018 61.367 245.018 80.1949C245.018 99.0227 258.714 114.286 275.61 114.286Z" fill="#F2F2F2"/>
<path d="M271.021 116.843C287.916 116.843 301.613 101.58 301.613 82.7517C301.613 63.9238 287.916 48.6608 271.021 48.6608C254.126 48.6608 240.429 63.9238 240.429 82.7517C240.429 101.58 254.126 116.843 271.021 116.843Z" fill="#F2F2F2"/>
<path d="M304.671 456L275.998 455.999V455.595C275.998 452.297 277.174 449.133 279.267 446.801C281.36 444.469 284.198 443.158 287.158 443.158H287.159L292.397 438.73L302.169 443.159L304.672 443.159L304.671 456Z" fill="#F2F2F2"/>
<path d="M291.323 438.742L266.825 455.347L266.637 455.002C265.099 452.183 264.628 448.8 265.329 445.595C266.029 442.39 267.843 439.627 270.372 437.913L270.373 437.912L272.782 431.096L283.197 429.22L285.335 427.771L291.323 438.742Z" fill="#F2F2F2"/>
<path d="M308.167 348.209C308.037 349.232 307.846 352.709 307.624 357.772C306.546 382.317 304.672 444.115 304.672 444.115L292.993 440.067C292.993 440.067 279.105 393.38 281.399 367.811L279.747 358.914L276.918 343.709V343.701L268.298 297.397C268.298 297.397 266.409 309.942 266.256 312.882C266.103 315.823 264.574 316.675 263.809 316.675C259.977 316.675 261.155 315.917 261.714 320.135C262.119 323.169 258.8 340.564 256.903 350.076C256.169 353.774 255.649 356.28 255.649 356.28L258.891 364.07L285.774 428.672L275.61 434.74L235.061 367.769L231.061 361.164L230.204 353.757L223.459 295.488C223.459 295.488 221.356 288.899 223.459 288.729C225.57 288.55 226.763 289.291 226.166 286.794C225.57 284.289 237.806 242.527 237.806 242.527L301.284 257.868C301.284 257.868 307.54 271.726 305.108 278.323C302.668 284.919 307.104 336.005 304.572 338.272C302.049 340.539 300.42 338.723 303.907 342.618C304.441 343.239 305.07 343.747 305.765 344.118C307.922 345.209 308.779 343.436 308.167 348.209Z" fill="#F2F2F2"/>
<path d="M270.822 103.991C280.56 103.991 288.455 95.1931 288.455 84.3408C288.455 73.4886 280.56 64.6911 270.822 64.6911C261.084 64.6911 253.189 73.4886 253.189 84.3408C253.189 95.1931 261.084 103.991 270.822 103.991Z" fill="#A0616A" fill-opacity="0.37"/>
<path d="M284.563 101.264L277.573 102.755C277.573 102.755 284.074 91.0621 283.691 85.7098C283.309 80.3576 278.078 78.44 278.078 78.44C278.078 78.44 275.179 79.1388 272.128 79.5309C271.762 78.3841 271.288 77.2841 270.713 76.2496C270.599 77.5852 270.069 78.834 269.214 79.778C268.095 79.8851 266.969 79.7401 265.902 79.3519C264.694 78.7383 264.717 77.6729 265.114 76.6758C261.176 77.038 257.332 78.2143 253.78 80.1445C253.604 77.528 253.694 74.8977 254.048 72.3036C254.216 72.2525 254.384 72.1929 254.553 72.1331C255.595 71.7657 256.6 71.2772 257.551 70.6757C256.493 70.5192 255.504 70.0012 254.721 69.1928C255.363 67.0962 256.388 65.2809 258.002 64.3945C259.559 63.546 261.261 63.0802 262.994 63.0287C264.726 62.9773 266.448 63.3413 268.044 64.0962C268.044 64.0962 264.304 61.0536 265.68 59.8093C265.772 59.9115 265.864 60.0053 265.963 60.099C266.093 60.2183 266.239 60.3462 266.376 60.4655C267.225 61.2326 268.495 60.1502 268.663 58.9911C268.681 58.8447 268.707 58.6996 268.74 58.5564C268.762 58.4371 268.793 58.3178 268.824 58.207C268.85 58.1087 268.88 58.0119 268.915 57.9172C271.462 57.2354 279.164 60.0053 282.123 66.1076C282.123 66.1076 302.811 77.1871 284.563 101.264Z" fill="#3F3D56"/>
<path d="M278.176 276.457C277.921 274.494 278.363 272.498 279.409 270.893C280.454 269.288 282.021 268.201 283.774 267.863C284.132 267.801 284.493 267.772 284.855 267.776L303.292 220.064L315.94 230.646L291.315 275.845C291.183 277.516 290.559 279.091 289.54 280.324C288.521 281.558 287.164 282.381 285.681 282.665C284.836 282.818 283.972 282.784 283.139 282.564C282.305 282.345 281.519 281.944 280.824 281.386C280.13 280.828 279.541 280.123 279.091 279.311C278.641 278.499 278.339 277.597 278.202 276.655C278.192 276.589 278.184 276.523 278.176 276.457Z" fill="#6C63FF"/>
<path d="M226.529 280.346C227.769 278.924 228.463 277.019 228.462 275.035C228.461 273.052 227.766 271.147 226.524 269.726C226.268 269.442 225.991 269.182 225.696 268.948L235.909 218.263L220.096 218.553L216.215 271.254C215.441 272.692 215.117 274.375 215.292 276.041C215.466 277.706 216.131 279.261 217.182 280.461C217.786 281.138 218.503 281.675 219.294 282.042C220.084 282.41 220.931 282.601 221.788 282.603C222.644 282.606 223.492 282.42 224.284 282.058C225.076 281.695 225.796 281.162 226.403 280.489C226.446 280.442 226.487 280.394 226.529 280.346Z" fill="#6C63FF"/>
<path d="M328.434 195.499C326.14 198.908 323.08 195.064 326.14 199.973C328.243 203.348 316.19 234.985 308.473 254.365C304.985 263.135 302.377 269.399 302.377 269.399L289.368 261.004L287.846 260.024C287.846 260.024 299.777 226.564 303.616 214.539C304.251 212.544 304.672 211.138 304.771 210.576C305.49 206.578 305.582 203.152 304.771 201.882C304.58 201.409 304.416 200.922 304.282 200.425C302.745 195.405 298.064 178.453 293.682 162.422C292.405 157.718 291.143 153.098 289.996 148.88C287.051 138.047 284.841 129.874 284.841 129.874L302.431 130.726C302.431 130.726 302.722 131.272 303.234 132.26C304.458 134.612 306.966 139.462 309.872 145.291C311.968 149.485 314.278 154.198 316.457 158.834C322.01 170.63 326.79 181.99 325.375 183.567C322.316 186.976 319.188 185.041 323.042 189.414C326.904 193.794 330.728 192.09 328.434 195.499Z" fill="#F2F2F2"/>
<path d="M307.4 240.823C302.811 235.761 303.66 212.69 303.66 212.69C303.66 212.69 308.226 135.218 302.046 130.028C297.773 126.591 293.227 123.599 288.463 121.088C288.188 120.951 288.043 120.875 288.043 120.875L284.097 108.474L259.784 107.068L255.539 116.255C255.539 116.255 254.874 116.306 253.834 116.468C249.949 117.065 240.817 119.179 241.628 125.767C242.653 134.119 235.418 185.417 233.215 187.983C231.012 190.548 231.594 199.923 237.039 205.88C242.484 211.838 238.569 228.039 234.745 234.858C232.45 239.031 231.39 243.902 231.716 248.784C231.716 248.784 234.745 267.244 242.392 261.278C245.306 259.002 249.444 258.713 254.423 259.13C254.471 259.134 254.524 259.141 254.573 259.145L254.423 259.983C261.336 260.554 269.879 262.488 279.018 262.377L278.748 261.521C278.839 261.521 278.927 261.526 279.018 261.525C280.563 261.508 282.116 261.431 283.691 261.278C297.32 259.957 303.339 264.133 305.105 259.573C306.872 255.014 311.988 245.886 307.4 240.823Z" fill="#F2F2F2"/>
<path opacity="0.3" d="M270.944 107.186C283.615 107.186 293.887 95.7389 293.887 81.618C293.887 67.4971 283.615 56.0498 270.944 56.0498C258.272 56.0498 248 67.4971 248 81.618C248 95.7389 258.272 107.186 270.944 107.186Z" fill="#6C63FF"/>
<path d="M259.985 121.351C259.985 121.351 256.498 134.255 252.437 149.144C251.159 153.831 249.821 158.715 248.521 163.462C244.276 178.897 240.406 192.806 240.047 193.36C239.236 194.63 239.336 198.056 240.047 202.053C240.192 202.854 239.864 205.973 239.244 210.448C238.433 216.32 237.126 224.519 235.734 232.888C234.625 239.578 233.462 246.371 232.46 252.158C230.893 261.141 229.722 267.695 229.722 267.695H215.191C215.191 267.695 217.922 199.76 220.981 194.86C224.04 189.951 220.981 193.794 218.686 190.385C216.392 186.976 220.216 188.681 224.071 184.3C227.925 179.928 224.805 181.863 221.746 178.453C220.614 177.192 223.145 169.155 226.786 159.533C228.483 155.067 230.418 150.252 232.33 145.615C236.284 136.044 240.162 127.24 241.699 123.763C241.699 123.755 241.707 123.746 241.707 123.738L242.395 122.204L259.985 121.351Z" fill="#F2F2F2"/>
<path d="M291.67 124.513C275.702 131.425 261.346 132.616 249.607 124.513V109.172C263.432 118.416 277.458 118.163 291.67 109.172V124.513Z" fill="#3F3D56"/>
<path d="M303.907 222.524C279.229 229.436 257.041 230.628 238.9 222.524V207.183C260.266 216.428 281.943 216.175 303.907 207.183V222.524Z" fill="#3F3D56"/>
<path d="M308.167 348.209C308.037 349.232 307.846 352.709 307.624 357.771C298.41 359.435 289.046 359.819 279.747 358.914L276.918 343.709C286.445 345.648 296.197 345.786 305.765 344.118C307.922 345.209 308.779 343.436 308.167 348.209Z" fill="#3F3D56"/>
<path d="M258.891 364.07C251.05 366.014 243.081 367.251 235.061 367.769L231.061 361.164L230.204 353.757C239.219 354.016 248.217 352.775 256.903 350.075C256.169 353.774 255.649 356.28 255.649 356.28L258.891 364.07Z" fill="#3F3D56"/>
<path d="M261.079 156.899C261.079 159.16 260.273 161.328 258.839 162.926C257.404 164.524 255.459 165.422 253.431 165.422C251.403 165.422 249.457 164.524 248.023 162.926C246.589 161.328 245.783 159.16 245.783 156.899C245.783 152.192 252.666 142.411 253.431 148.377C254.196 154.343 261.079 152.192 261.079 156.899Z" fill="#6C63FF"/>
<path d="M254.262 142.449C253.987 142.423 253.712 142.415 253.429 142.415C250.099 142.419 246.898 143.845 244.483 146.399C242.067 148.952 240.622 152.44 240.443 156.145C240.435 156.392 240.427 156.648 240.427 156.903C240.427 157.253 240.435 157.594 240.466 157.935C240.658 160.969 241.703 163.858 243.452 166.193C245.201 168.527 247.565 170.189 250.21 170.942C252.854 171.694 255.644 171.5 258.183 170.386C260.723 169.272 262.883 167.295 264.358 164.736C264.654 164.231 264.92 163.704 265.153 163.159C266.072 161.022 266.507 158.666 266.419 156.298C266.331 153.931 265.722 151.623 264.647 149.578C263.572 147.534 262.063 145.814 260.252 144.571C258.441 143.328 256.385 142.599 254.262 142.449ZM263.241 164.489C262.041 166.096 260.543 167.394 258.848 168.291C257.154 169.189 255.305 169.666 253.429 169.688C250.635 169.683 247.939 168.544 245.844 166.485C243.75 164.425 242.4 161.585 242.049 158.497C241.987 157.969 241.956 157.436 241.957 156.903C241.956 156.829 241.958 156.755 241.965 156.682C242.017 153.331 243.248 150.138 245.392 147.788C247.536 145.439 250.422 144.121 253.429 144.119C253.498 144.324 253.566 144.52 253.643 144.707C256.909 153.315 263.99 152.668 264.901 156.903C265.341 158.951 265.073 161.108 264.151 162.946C263.892 163.491 263.587 164.007 263.241 164.489Z" fill="#6C63FF"/>
<path d="M512.647 0H17.3531C12.7525 0.00617318 8.34186 2.04555 5.08872 5.67081C1.83559 9.29606 0.00553953 14.2112 0 19.3381V505.662C0.00553953 510.789 1.83559 515.704 5.08872 519.329C8.34186 522.954 12.7525 524.994 17.3531 525H512.647C517.248 524.994 521.658 522.954 524.911 519.329C528.164 515.704 529.994 510.789 530 505.662V19.3381C529.994 14.2112 528.164 9.29606 524.911 5.67081C521.658 2.04555 517.248 0.00617318 512.647 0ZM528.47 505.662C528.466 510.337 526.798 514.819 523.831 518.125C520.864 521.431 516.842 523.291 512.647 523.295H17.3531C13.1578 523.291 9.13554 521.431 6.169 518.125C3.20246 514.819 1.53394 510.337 1.52958 505.662V19.3381C1.53394 14.6629 3.20245 10.1805 6.169 6.87465C9.13554 3.56877 13.1578 1.7094 17.3531 1.70455H512.647C516.842 1.7094 520.865 3.56877 523.831 6.87465C526.798 10.1805 528.466 14.6629 528.47 19.3381V505.662Z" fill="#3F3D56"/>
</g>
<defs>
<clipPath id="clip0_120_80">
<rect width="530" height="525" fill="white"/>
</clipPath>
</defs>
</svg>
