<svg width="245" height="332" viewBox="0 0 245 332" fill="none" xmlns="http://www.w3.org/2000/svg">
<g clip-path="url(#clip0_509_28)">
<path d="M41.1474 307.654L31.6852 309.576C31.6852 309.576 29.3913 316.239 28.3161 319.827C28.2444 320.019 28.0293 320.66 27.886 321.044C27.7426 321.685 27.6709 322.262 27.6709 322.902C27.8859 326.106 29.2479 328.861 32.402 330.27C35.9145 331.872 38.6385 333.346 42.366 330.27C46.0936 327.195 46.7387 325.273 45.1617 319.955C43.5846 314.638 41.1474 307.718 41.1474 307.654Z" fill="#4B49BB"/>
<path d="M96.0567 318.738C89.6769 316.944 86.9529 309.897 86.9529 309.897L74.1216 309.32C74.1216 309.32 73.8348 316.496 73.4764 320.404C73.0463 325.594 74.1216 327.9 77.9925 327.58C83.1537 327.195 104.229 328.861 107.526 327.003C111.97 324.633 102.078 320.404 96.0567 318.738Z" fill="#4B49BB"/>
<path d="M21.3621 145.947C21.3621 145.947 16.5593 151.841 15.054 167.73C13.5486 183.619 16.9177 213.795 18.4948 219.625C20.0718 225.455 26.38 279.977 27.957 283.949C29.534 287.921 31.6845 309.64 31.6845 309.64L41.8636 309.897C41.8636 309.897 44.8743 281.579 44.8743 274.083C44.8743 266.587 49.1036 195.664 48.8169 190.474C48.5302 185.285 49.8922 186.95 49.8922 186.95C49.8922 186.95 58.7809 212.321 61.4332 216.55C64.0855 220.778 68.8166 229.043 68.8166 229.043C68.8166 229.043 69.8918 255.631 71.1821 271.007C72.4725 286.384 73.8344 310.601 73.8344 310.601L87.526 310.345C87.526 310.345 90.68 269.854 90.68 261.333C90.68 252.812 93.5474 232.375 93.5474 230.004C93.5474 227.633 84.6586 186.246 84.6586 186.246L78.4222 145.883L21.3621 145.947Z" fill="url(#paint0_linear_509_28)"/>
<path d="M37.4909 12.3006C32.8315 13.8382 26.8818 34.5322 26.8818 34.5322L26.8101 34.4681L24.2295 36.7745L25.3047 41.1311L29.8208 109.363L53.1896 104.879L73.6194 85.5302L86.3791 90.9119C86.3791 90.9119 87.3826 115.706 87.526 117.052C87.6694 118.397 89.8199 155.877 89.8199 158.311C89.8916 160.938 102.364 172.727 104.443 171.445C110.608 167.601 100.357 160.49 97.9201 158.76C96.4865 157.735 93.4041 122.882 93.189 118.781C92.974 114.681 100.286 104.238 87.5977 90.4634C78.3505 80.4048 73.3327 54.5854 65.5909 25.2423C61.5049 9.99414 59.0677 5.44531 55.0534 5.44531C51.3975 5.44531 46.3797 9.35346 37.4909 12.3006Z" fill="url(#paint1_linear_509_28)"/>
<path d="M33.5483 70.4108C33.4767 70.603 24.6596 74.319 20.8604 78.4834C17.0611 82.6478 13.9788 88.6702 13.9788 88.6702C13.9788 88.6702 8.38745 100.459 4.51654 109.172C2.43772 113.849 -4.37221 133.005 3.79971 133.71C11.5415 134.351 28.6739 118.077 31.3262 115.002L34.2652 109.108C34.4802 108.339 29.6774 100.395 29.8208 99.6899C29.9642 98.5367 41.1468 92.7065 42.8672 96.1661C43.4407 97.3194 44.946 100.651 45.3761 101.676C46.4514 104.175 30.1792 109.044 30.1792 111.286C30.1792 114.041 28.8172 124.228 26.595 129.225C24.3729 134.222 21.0037 146.075 21.0037 146.075L78.2072 146.203C78.2072 146.203 76.2717 123.459 77.0602 115.899C77.0602 115.899 79.4975 91.1048 80.9311 88.6702C82.3648 86.2356 84.802 119.295 84.4436 126.086C84.1569 130.827 88.9597 159.273 90.3217 160.298C92.5438 161.836 97.7767 158.761 97.7767 158.761C97.7767 158.761 97.5617 127.559 97.3466 122.37C97.1316 117.18 97.49 75.2159 89.8199 67.6559C82.1497 60.0959 80.0709 60.2881 73.6911 62.2742C67.3113 64.2603 64.1572 66.1824 55.4835 67.4637C50.1789 68.2966 44.6593 67.6559 39.7131 65.7339C41.0751 61.3132 38.2078 68.8091 38.5662 66.759" fill="url(#paint2_linear_509_28)"/>
<path d="M42.0077 0.576584C42.0077 0.576584 30.6101 0.960992 27.3843 10.8915C24.1585 20.8221 23.6568 34.7889 23.5851 36.9672C23.4417 39.2736 24.8037 54.9062 23.37 59.2628C22.0797 63.1069 18.4239 70.2184 16.2017 75.1517C15.3415 77.0737 14.6963 79.1239 14.2662 81.174L13.9795 82.8398C14.553 84.5696 16.6318 85.5947 18.6389 85.0181C18.7823 84.954 18.9257 84.954 18.9973 84.89C20.1443 84.4415 21.2195 83.929 22.2948 83.3524C25.7356 81.4944 30.1083 76.5611 33.5491 75.0235C37.2049 73.4218 41.3626 65.9899 41.936 65.4133C42.5095 64.8367 42.2945 62.9787 42.3661 61.1848C42.7246 51.895 40.7891 43.374 38.3519 38.8892C35.9146 34.4045 30.3233 25.6271 34.1942 20.5658C38.0651 15.5044 46.1654 11.4681 46.5238 10.2508C46.8822 9.03355 47.0973 15.12 51.3983 17.2983C55.6993 19.4766 61.7207 25.3068 61.7207 26.5882C61.7207 27.8695 63.1544 32.0339 59.0684 39.2736C54.9824 46.5133 51.7567 55.7391 57.4197 62.6584C63.0827 69.5777 77.3477 79.1879 78.3513 81.3662C79.3548 83.5446 78.3513 93.2188 77.9928 98.6646C77.6344 104.11 89.5339 89.3747 89.1038 82.2632C88.6737 75.1516 90.1073 72.0764 82.0071 61.2489C73.9069 50.4214 68.6023 31.7136 68.3873 27.1648C68.1722 22.616 65.735 10.0586 60.8605 6.40677C56.7028 3.33151 55.771 0.320312 47.0973 0.320312C45.3769 0.320312 43.6565 0.448448 42.0077 0.576584Z" fill="url(#paint3_linear_509_28)"/>
<g opacity="0.07">
<path d="M37.635 95.8458C35.9146 96.4865 34.2658 97.1913 32.6888 98.0242L30.9684 98.793C30.9684 98.793 12.7608 115.771 13.5493 114.874C17.0618 110.966 27.9577 90.2079 31.6135 85.4028C35.4844 80.4055 37.635 82.3916 41.8643 95.6536" fill="white"/>
</g>
<g opacity="0.07">
<path d="M36.775 309.512C36.8467 309.704 36.8467 309.896 36.8467 310.089C36.9184 311.498 36.8467 315.022 35.1263 317.264C32.9758 320.211 38.0653 326.682 38.0653 328.284C38.0653 329.886 35.6998 331.359 34.051 330.911C32.4023 330.462 25.5207 327.002 28.2447 319.571C29.3199 316.559 29.9651 313.933 30.6102 312.267C30.9686 311.434 31.2554 310.601 31.5421 309.768C31.6138 309.384 31.6138 308.999 31.6138 308.615C31.5421 308.102 31.5421 307.526 31.4704 306.949C31.112 304.066 17.4922 214.179 16.9904 210.719C16.5603 207.644 14.5531 188.616 14.7682 177.468C14.6248 176.507 14.6248 175.546 14.6965 174.649C14.6965 174.393 14.8399 173.304 14.7682 172.855C14.8399 171.83 14.9115 170.805 15.0549 169.78C14.8399 168.947 14.9832 168.947 15.0549 167.602C15.1266 166.256 15.0549 165.487 15.1983 164.654C16.5603 157.094 19.6427 148.509 21.148 146.075L21.5781 144.729C21.5781 144.729 25.0189 133.325 26.1659 131.211C27.1694 129.289 30.0368 119.23 29.75 117.116C29.6067 115.963 34.1944 111.478 34.1944 111.478L35.1263 110.773C35.5564 110.709 36.0582 110.773 36.4883 110.901C37.4918 111.286 41.3628 108.275 42.0079 110.197C46.5956 123.331 48.4594 128.904 40.3592 136.721C32.2589 144.537 39.714 151.52 39.8574 157.03C40.2158 170.613 32.8324 169.139 32.4023 177.596C31.9722 186.053 34.051 192.14 34.1944 196.56C34.5528 211.104 34.3378 213.987 33.4776 219.689C32.6174 225.391 28.2447 236.218 33.1192 257.489C37.9936 278.759 37.2768 280.681 36.775 292.726C36.2732 304.771 36.775 309.512 36.775 309.512Z" fill="black"/>
</g>
<path d="M29.2484 89.7593L29.3918 89.6952C29.9653 89.439 33.3344 87.9013 35.6999 87.0684C38.3522 86.1074 41.578 94.18 42.3665 95.7817C42.4382 95.9098 42.4382 95.9098 41.8647 95.9739C39.9293 96.1661 37.9938 96.4864 36.13 96.9349C33.4061 97.5115 30.3237 99.4336 30.1803 99.4976C30.0369 99.5617 29.2484 98.0241 27.6714 94.4363C27.313 93.6034 26.5244 91.4251 27.2413 90.9125L29.2484 89.7593Z" fill="white"/>
<path opacity="0.07" d="M49.8213 46.898C51.5417 47.4746 53.5488 47.0902 54.8391 45.8729C57.133 43.8227 53.9789 50.9343 54.4807 52.536C54.9825 54.1377 49.8213 46.898 49.8213 46.898Z" fill="black"/>
<path d="M34.2656 108.532C34.2656 108.532 45.0898 102.189 45.2332 102.445C45.5199 103.022 46.4518 105.328 46.4518 105.328C46.4518 105.328 47.312 106.802 47.0253 107.25C46.7385 107.699 36.4878 111.607 36.4878 111.607C36.0577 111.543 35.6993 111.351 35.5559 111.03C35.0541 110.261 34.624 109.428 34.2656 108.532Z" fill="white"/>
</g>
<g clip-path="url(#clip1_509_28)">
<path d="M164.046 319.311C164.046 319.311 158.576 325.236 154.474 325.464C150.979 325.616 150.523 326.984 150.523 329.339C150.523 331.694 165.717 331.238 170.656 330.326C174.15 329.718 171.719 319.462 171.719 319.462L164.046 319.311Z" fill="#4B49BB"/>
<path d="M212.287 318.247L205.374 318.931C205.374 318.931 200.208 324.932 196.182 325.464C192.687 325.92 191.851 327.439 192.003 329.795C192.155 332.15 209.324 330.554 212.287 328.579C215.25 326.604 212.287 318.247 212.287 318.247Z" fill="#4B49BB"/>
<path d="M198.612 80.3084C197.245 95.7303 195.878 95.3504 191.547 100.744C189.42 103.403 185.925 106.67 185.546 110.089C185.47 110.848 185.773 111.532 186.381 112.064L190.939 115.71L192.839 117.154C192.991 117.306 193.143 117.458 193.219 117.61L209.02 143.515L209.096 143.591L218.896 162.28C219.504 163.42 218.593 166.99 217.681 167.978C212.971 172.992 202.107 178.31 203.702 183.324C208.944 199.885 204.69 196.011 201.651 193.352C200.056 191.908 197.929 185.071 197.169 182.032C196.409 178.993 210.844 164.559 209.324 162.28C207.957 160.153 197.245 144.731 195.574 142.3C195.422 142.072 195.27 141.92 194.966 141.768L184.862 136.526C184.102 136.146 183.115 136.45 182.735 137.21C182.583 137.514 182.507 137.818 182.583 138.198L198.081 228.07V228.146L200.816 252.153C200.816 252.153 200.816 252.229 200.816 252.305C200.892 255.191 202.183 268.866 202.487 271.601C203.247 277.071 204.538 279.73 205.526 284.82L211.907 316.499C212.059 317.411 212.819 319.766 211.907 319.918L206.665 319.994C205.906 320.07 205.146 318.551 204.918 317.791L193.75 283.832C192.991 281.249 189.192 273.88 188.129 268.182C186.609 260.357 185.166 251.469 184.482 248.05L181.215 229.362C181.139 228.754 181.367 228.07 181.899 227.766L190.484 222.296C191.167 221.917 191.395 221.081 191.091 220.321L181.595 197.454C181.215 196.619 180.304 196.315 179.468 196.619C178.86 196.922 178.48 197.53 178.556 198.214L181.367 225.943C181.367 226.019 181.367 226.171 181.367 226.247L179.696 246.911C179.696 246.987 179.696 246.987 179.696 247.063L175.138 274.564C175.138 274.64 175.138 274.64 175.138 274.716L171.795 318.171C171.719 319.006 171.567 320.83 170.807 320.83L165.186 321.058C164.274 321.058 163.894 319.006 163.894 318.095L163.742 296.063V295.987L162.679 280.565C162.679 280.565 162.679 280.49 162.679 280.414C162.147 277.299 162.527 270.613 162.679 265.903C162.907 259.446 163.438 255.799 163.514 254.66L164.046 236.655C164.046 236.579 164.046 236.503 164.046 236.427L161.235 216.447C161.235 216.371 161.235 216.295 161.235 216.219V132.652C161.235 131.74 160.551 131.056 159.64 131.056C159.108 131.056 158.652 131.284 158.348 131.74C154.626 137.058 150.22 141.996 145.281 146.25C140.723 150.049 137.912 150.733 136.545 150.809C136.013 150.809 135.481 150.581 135.177 150.125L110.867 116.242C110.563 115.786 109.955 115.558 109.424 115.558L105.777 115.938C105.701 115.938 105.549 115.938 105.473 115.938C99.8513 115.407 96.6606 113.735 94.7614 113.051C94.1536 112.824 93.8497 112.216 94.0776 111.684C94.1536 111.456 94.3055 111.304 94.4575 111.152C97.3443 109.101 100.839 107.885 104.41 107.734C108.512 107.81 112.614 108.873 116.261 110.772C116.413 110.848 116.641 111 116.717 111.152L136.773 136.45C137.305 137.134 138.292 137.286 138.976 136.754C139.128 136.678 139.204 136.526 139.28 136.374L147.257 124.979C147.409 124.751 147.561 124.599 147.788 124.523L171.339 111C171.947 110.62 172.479 110.089 172.707 109.405C173.542 107.05 174.454 104.695 170.959 97.9334C168.528 93.2233 165.869 74.3827 180 64.5066C182.887 62.4554 181.443 66.026 183.874 66.026C193.219 66.026 196.789 76.5099 196.789 76.5099" fill="url(#paint4_linear_509_28)"/>
<path d="M171.415 111.228C171.415 115.027 173.846 122.016 181.975 122.016C187.217 122.016 188.432 116.622 188.736 114.419C188.888 113.128 190.939 115.331 192.155 116.014C203.778 123.004 209.476 144.123 209.476 144.123L196.941 145.567L195.346 176.79L213.275 229.362C213.579 230.197 213.123 231.109 212.287 231.413C212.059 231.489 211.831 231.489 211.527 231.489C204.538 230.577 185.394 228.298 181.899 230.729C172.935 236.807 150.22 234.148 150.22 231.869C150.22 228.526 160.931 172.46 160.931 172.46L154.55 136.07L152.727 134.627L145.737 127.41L152.803 116.09C155.31 113.203 159.108 111.532 162.907 110.924C164.806 110.62 166.781 110.469 168.68 110.393C170.276 110.545 171.415 110.696 171.415 111.228Z" fill="url(#paint5_linear_509_28)"/>
<path d="M196.561 94.9706C195.953 95.1985 195.269 94.9706 194.89 94.4388C191.927 90.5643 179.923 74.8385 179.468 73.8509C178.936 72.7114 170.655 82.5875 169.364 86.31C167.844 90.7922 167.464 79.2448 166.781 77.4975C166.097 75.7502 160.399 84.7146 157.436 85.4743C154.473 86.234 153.562 84.3348 151.587 87.8294C150.447 89.9566 152.65 74.8385 160.247 69.8245C165.185 66.5578 166.553 74.9905 166.553 74.9905C169.364 71.116 173.01 67.9253 177.189 65.6462C183.266 62.3035 189.116 62.0756 196.865 69.2927C201.347 73.4711 205.146 81.8278 204.994 85.7023C204.842 89.4248 208.64 86.234 209.324 85.4743C210.008 84.7146 216.617 86.462 215.477 92.0078C214.338 97.5536 214.11 97.2497 210.008 100.516C207.728 102.264 205.753 104.391 204.31 106.746V92.6915C204.234 91.1721 199.828 93.7551 196.561 94.9706Z" fill="url(#paint6_linear_509_28)"/>
<path opacity="0.07" d="M179.468 104.391C179.468 104.391 184.938 107.81 187.673 104.239C189.42 101.884 184.482 109.177 185.317 112.064C186.153 114.951 179.468 104.391 179.468 104.391Z" fill="black"/>
<path opacity="0.07" d="M189.952 131.893L196.865 145.567L195.269 176.791L213.198 229.362C213.198 229.362 216.921 232.021 206.437 230.882C195.953 229.742 189.192 229.362 185.849 229.362C182.506 229.362 174.606 226.02 186.609 214.396C191.471 209.686 190.331 206.115 186.989 193.808C183.646 181.501 194.13 183.704 186.989 173.524C179.848 163.344 197.093 149.138 189.952 131.893Z" fill="black"/>
</g>
<defs>
<linearGradient id="paint0_linear_509_28" x1="14.6758" y1="228.242" x2="93.5474" y2="228.242" gradientUnits="userSpaceOnUse">
<stop stop-color="#4B45BD"/>
<stop offset="1" stop-color="#58CAEA"/>
</linearGradient>
<linearGradient id="paint1_linear_509_28" x1="24.2295" y1="88.4938" x2="106.387" y2="88.4938" gradientUnits="userSpaceOnUse">
<stop stop-color="#F87B58"/>
<stop offset="0.5" stop-color="#F8C548"/>
<stop offset="1" stop-color="#F89C51"/>
</linearGradient>
<linearGradient id="paint2_linear_509_28" x1="-0.121094" y1="110.916" x2="97.7767" y2="110.916" gradientUnits="userSpaceOnUse">
<stop stop-color="#F8C547"/>
<stop offset="1" stop-color="#F71D69"/>
</linearGradient>
<linearGradient id="paint3_linear_509_28" x1="13.9795" y1="50.0835" x2="89.1152" y2="50.0835" gradientUnits="userSpaceOnUse">
<stop stop-color="#F8C547"/>
<stop offset="1" stop-color="#F71D69"/>
</linearGradient>
<linearGradient id="paint4_linear_509_28" x1="94.002" y1="192.464" x2="219.093" y2="192.464" gradientUnits="userSpaceOnUse">
<stop offset="0.02" stop-color="#F87B58"/>
<stop offset="0.51" stop-color="#F8C548"/>
<stop offset="1" stop-color="#F89C51"/>
</linearGradient>
<linearGradient id="paint5_linear_509_28" x1="145.737" y1="172.425" x2="213.369" y2="172.425" gradientUnits="userSpaceOnUse">
<stop stop-color="#4B45BD"/>
<stop offset="1" stop-color="#58CAEA"/>
</linearGradient>
<linearGradient id="paint6_linear_509_28" x1="214.731" y1="85.0746" x2="154.014" y2="85.0746" gradientUnits="userSpaceOnUse">
<stop stop-color="#4B45BD"/>
<stop offset="1" stop-color="#58CAEA"/>
</linearGradient>
<clipPath id="clip0_509_28">
<rect width="120" height="332" fill="white"/>
</clipPath>
<clipPath id="clip1_509_28">
<rect width="150.5" height="269.086" fill="white" transform="translate(94 62)"/>
</clipPath>
</defs>
</svg>
