<svg width="184" height="196" viewBox="0 0 184 196" fill="none" xmlns="http://www.w3.org/2000/svg">
<g clip-path="url(#clip0_509_29)">
<path d="M52.6905 5.07715L39.0039 82.0654C39.0039 82.0654 56.6585 78.9511 64.9673 82.0654L52.6905 5.07715Z" fill="url(#paint0_linear_509_29)"/>
<path d="M52.6904 5.07715L64.9792 82.0654C64.9792 82.0654 117.18 75.5242 157.13 81.5183L142.953 5.35671L52.6995 5.07715" fill="#FCFCFC"/>
<path d="M104.602 44.1712L91.977 44.4628L90.1523 34.3023L102.51 34.2422L104.602 44.1712Z" fill="#58CAEA"/>
<path d="M124.616 43.576L111.988 43.8676L110.163 33.7071L122.521 33.647L124.616 43.576Z" fill="#58CAEA"/>
<path d="M143.485 43.663L130.86 43.9516L129.032 33.7911L141.393 33.731L143.485 43.663Z" fill="#58CAEA"/>
<path d="M146.022 57.3436L133.394 57.6322L131.569 47.4717L143.927 47.4116L146.022 57.3436Z" fill="#58CAEA"/>
<path d="M107.355 57.2265L94.73 57.515L92.9023 47.3546L105.26 47.2944L107.355 57.2265Z" fill="#58CAEA"/>
<path d="M87.8194 57.8338L75.1939 58.1254L73.3662 47.9649L85.7271 47.9048L87.8194 57.8338Z" fill="#58CAEA"/>
<path d="M90.9307 71.9803L78.3022 72.2689L76.4775 62.1084L88.8355 62.0513L90.9307 71.9803Z" fill="#58CAEA"/>
<path d="M110.311 71.6946L97.6851 71.9862L95.8574 61.8227L108.218 61.7656L110.311 71.6946Z" fill="#58CAEA"/>
<path d="M130.277 71.6493L117.652 71.9379L115.827 61.7774L128.185 61.7173L130.277 71.6493Z" fill="#58CAEA"/>
<path d="M127.124 57.2084L114.499 57.497L112.671 47.3365L125.032 47.2764L127.124 57.2084Z" fill="url(#paint1_linear_509_29)"/>
<path d="M77.4668 0.126255L84.3567 0L85.1293 9.66449L78.3235 9.6705L77.4668 0.126255Z" fill="url(#paint2_linear_509_29)"/>
<path d="M120.562 0.577197L126.517 0.459961L127.187 9.43907L121.304 9.44508L120.562 0.577197Z" fill="url(#paint3_linear_509_29)"/>
</g>
<g clip-path="url(#clip1_509_29)">
<path d="M0.4744 79.2367C0.208099 79.2367 0.000976562 79.4438 0.000976562 79.7101C0.000976562 81.012 0.296866 84.4148 3.04864 84.4148C6.30342 84.4148 171.055 84.326 180.997 84.2964C181.352 84.2964 181.914 83.6751 182.239 83.2608C182.713 82.6986 183.364 81.8405 183.748 79.9468C183.837 79.5326 183.571 79.1184 183.157 79.0296C183.097 79.0296 183.038 79 183.009 79L0.4744 79.2367Z" fill="url(#paint4_linear_509_29)"/>
<path d="M12.3403 84.3851C12.3403 84.3851 12.0444 87.9357 15.0033 87.9357C17.8734 87.9357 162.623 87.6398 171.351 87.6102C171.647 87.6102 171.973 87.4919 172.209 87.3144C172.742 86.9001 173.6 85.9829 173.925 84.2075L12.3403 84.3851Z" fill="url(#paint5_linear_509_29)"/>
<path d="M144.75 87.5513H146.407L163.983 195.433L162.592 195.521L144.75 87.5513Z" fill="url(#paint6_linear_509_29)"/>
<path d="M50.1251 87.7881H48.0834L26.5723 195.64L28.2588 195.758L50.1251 87.7881Z" fill="url(#paint7_linear_509_29)"/>
<path d="M62.6414 87.7881H60.6293L39.1182 187.799L40.8047 187.887L62.6414 87.7881Z" fill="url(#paint8_linear_509_29)"/>
<path d="M130.577 87.3442H132.5L152.917 187.325L151.319 187.414L130.577 87.3442Z" fill="url(#paint9_linear_509_29)"/>
</g>
<defs>
<linearGradient id="paint0_linear_509_29" x1="39.0039" y1="43.5698" x2="64.9673" y2="43.5698" gradientUnits="userSpaceOnUse">
<stop stop-color="#4B45BD"/>
<stop offset="1" stop-color="#58CAEA"/>
</linearGradient>
<linearGradient id="paint1_linear_509_29" x1="112.796" y1="52.419" x2="127.014" y2="52.0913" gradientUnits="userSpaceOnUse">
<stop stop-color="#4B45BD"/>
<stop offset="1" stop-color="#58CAEA"/>
</linearGradient>
<linearGradient id="paint2_linear_509_29" x1="77.4668" y1="4.83375" x2="85.1323" y2="4.83375" gradientUnits="userSpaceOnUse">
<stop stop-color="#4B45BD"/>
<stop offset="1" stop-color="#58CAEA"/>
</linearGradient>
<linearGradient id="paint3_linear_509_29" x1="77.4666" y1="4.83378" x2="85.1321" y2="4.83378" gradientUnits="userSpaceOnUse">
<stop stop-color="#4B45BD"/>
<stop offset="1" stop-color="#58CAEA"/>
</linearGradient>
<linearGradient id="paint4_linear_509_29" x1="-0.00198233" y1="81.7074" x2="183.754" y2="81.7074" gradientUnits="userSpaceOnUse">
<stop stop-color="#F8C547"/>
<stop offset="1" stop-color="#F71D69"/>
</linearGradient>
<linearGradient id="paint5_linear_509_29" x1="12.3172" y1="86.0775" x2="173.887" y2="86.0775" gradientUnits="userSpaceOnUse">
<stop stop-color="#F8C547"/>
<stop offset="1" stop-color="#F71D69"/>
</linearGradient>
<linearGradient id="paint6_linear_509_29" x1="144.741" y1="141.535" x2="163.974" y2="141.535" gradientUnits="userSpaceOnUse">
<stop stop-color="#F8C547"/>
<stop offset="1" stop-color="#F71D69"/>
</linearGradient>
<linearGradient id="paint7_linear_509_29" x1="51.0646" y1="141.77" x2="27.597" y2="141.77" gradientUnits="userSpaceOnUse">
<stop stop-color="#F8C547"/>
<stop offset="1" stop-color="#F71D69"/>
</linearGradient>
<linearGradient id="paint8_linear_509_29" x1="63.5585" y1="137.838" x2="40.0945" y2="137.838" gradientUnits="userSpaceOnUse">
<stop stop-color="#F8C547"/>
<stop offset="1" stop-color="#F71D69"/>
</linearGradient>
<linearGradient id="paint9_linear_509_29" x1="63.5581" y1="137.838" x2="40.094" y2="137.838" gradientUnits="userSpaceOnUse">
<stop stop-color="#F8C547"/>
<stop offset="1" stop-color="#F71D69"/>
</linearGradient>
<clipPath id="clip0_509_29">
<rect width="118.125" height="82.0625" fill="white" transform="translate(39)"/>
</clipPath>
<clipPath id="clip1_509_29">
<rect width="183.75" height="116.758" fill="white" transform="translate(0 79)"/>
</clipPath>
</defs>
</svg>
