<svg width="151" height="270" viewBox="0 0 151 270" fill="none" xmlns="http://www.w3.org/2000/svg">
<g clip-path="url(#clip0_132_2439)">
<path d="M70.0461 257.311C70.0461 257.311 64.5763 263.236 60.4739 263.464C56.9793 263.616 56.5234 264.984 56.5234 267.339C56.5234 269.694 71.7175 269.238 76.6555 268.326C80.1501 267.719 77.7191 257.463 77.7191 257.463L70.0461 257.311Z" fill="#4B49BB"/>
<path d="M118.287 256.247L111.374 256.931C111.374 256.931 106.208 262.932 102.182 263.464C98.6869 263.92 97.8512 265.439 98.0032 267.795C98.1551 270.15 115.324 268.554 118.287 266.579C121.25 264.604 118.287 256.247 118.287 256.247Z" fill="#4B49BB"/>
<path d="M104.612 18.3088C103.245 33.7307 101.878 33.3509 97.5472 38.7447C95.4201 41.4037 91.9254 44.6704 91.5456 48.0891C91.4696 48.8488 91.7735 49.5325 92.3813 50.0643L96.9395 53.7108L98.8387 55.1543C98.9907 55.3062 99.1426 55.4582 99.2186 55.6101L115.02 81.5159L115.096 81.5919L124.896 100.281C125.504 101.42 124.593 104.991 123.681 105.978C118.971 110.992 108.107 116.31 109.702 121.324C114.944 137.886 110.69 134.011 107.651 131.352C106.056 129.909 103.929 123.072 103.169 120.033C102.409 116.994 116.844 102.56 115.324 100.281C113.957 98.1533 103.245 82.7314 101.574 80.3004C101.422 80.0725 101.27 79.9205 100.966 79.7686L90.8619 74.5266C90.1022 74.1468 89.1145 74.4507 88.7347 75.2104C88.5828 75.5143 88.5068 75.8181 88.5828 76.198L104.081 166.071V166.147L106.816 190.153C106.816 190.153 106.816 190.229 106.816 190.305C106.892 193.192 108.183 206.867 108.487 209.601C109.247 215.071 110.538 217.73 111.526 222.82L117.907 254.5C118.059 255.411 118.819 257.766 117.907 257.918L112.665 257.994C111.906 258.07 111.146 256.551 110.918 255.791L99.7504 221.833C98.9907 219.25 95.1922 211.881 94.1286 206.183C92.6092 198.358 91.1657 189.469 90.482 186.051L87.2153 167.362C87.1393 166.754 87.3672 166.071 87.899 165.767L96.4836 160.297C97.1674 159.917 97.3953 159.081 97.0914 158.322L87.5951 135.455C87.2153 134.619 86.3036 134.315 85.468 134.619C84.8602 134.923 84.4804 135.531 84.5563 136.214L87.3672 163.943C87.3672 164.019 87.3672 164.171 87.3672 164.247L85.6959 184.911C85.6959 184.987 85.6959 184.987 85.6959 185.063L81.1377 212.564C81.1377 212.64 81.1377 212.64 81.1377 212.716L77.795 256.171C77.719 257.007 77.5671 258.83 76.8074 258.83L71.1856 259.058C70.274 259.058 69.8941 257.007 69.8941 256.095L69.7422 234.064V233.988L68.6786 218.566C68.6786 218.566 68.6786 218.49 68.6786 218.414C68.1468 215.299 68.5267 208.614 68.6786 203.904C68.9065 197.446 69.4383 193.8 69.5143 192.66L70.0461 174.655C70.0461 174.579 70.0461 174.503 70.0461 174.427L67.2352 154.447C67.2352 154.371 67.2352 154.295 67.2352 154.219V70.6522C67.2352 69.7405 66.5514 69.0568 65.6398 69.0568C65.108 69.0568 64.6522 69.2847 64.3483 69.7405C60.6258 75.0584 56.2195 79.9965 51.2814 84.2508C46.7232 88.0493 43.9124 88.733 42.5449 88.809C42.0131 88.809 41.4813 88.5811 41.1774 88.1253L16.867 54.2426C16.5631 53.7868 15.9554 53.5589 15.4236 53.5589L11.777 53.9388C11.701 53.9388 11.5491 53.9388 11.4731 53.9388C5.85135 53.407 2.66061 51.7356 0.761354 51.0519C0.153593 50.824 -0.150287 50.2162 0.0776229 49.6844C0.153593 49.4565 0.305533 49.3046 0.457473 49.1526C3.34434 47.1014 6.83896 45.8859 10.4096 45.734C14.5119 45.81 18.6143 46.8735 22.2609 48.7728C22.4128 48.8488 22.6407 49.0007 22.7167 49.1526L42.7728 74.4507C43.3046 75.1344 44.2922 75.2863 44.9759 74.7546C45.1279 74.6786 45.2038 74.5266 45.2798 74.3747L53.2567 62.9792C53.4086 62.7513 53.5606 62.5993 53.7885 62.5234L77.3392 49.0007C77.9469 48.6208 78.4787 48.0891 78.7066 47.4053C79.5423 45.0503 80.454 42.6952 76.9593 35.9338C74.5283 31.2237 71.8693 12.3831 85.9998 2.50701C88.8866 0.455819 87.4432 4.02641 89.8743 4.02641C99.2186 4.02641 102.789 14.5103 102.789 14.5103" fill="url(#paint0_linear_132_2439)"/>
<path d="M77.4152 49.2286C77.4152 53.0271 79.8462 60.0164 87.975 60.0164C93.217 60.0164 94.4325 54.6225 94.7364 52.4194C94.8883 51.1279 96.9395 53.331 98.155 54.0147C109.778 61.004 115.476 82.1237 115.476 82.1237L102.941 83.5671L101.346 114.791L119.275 167.362C119.579 168.198 119.123 169.109 118.287 169.413C118.059 169.489 117.831 169.489 117.527 169.489C110.538 168.578 91.3937 166.299 87.8991 168.73C78.9346 174.807 56.2195 172.148 56.2195 169.869C56.2195 166.526 66.9313 110.46 66.9313 110.46L60.5498 74.0708L58.7266 72.6274L51.7373 65.4102L58.8025 54.0907C61.3095 51.2038 65.108 49.5325 68.9065 48.9247C70.8058 48.6209 72.781 48.4689 74.6803 48.3929C76.2756 48.5449 77.4152 48.6968 77.4152 49.2286Z" fill="url(#paint1_linear_132_2439)"/>
<path d="M102.561 32.971C101.953 33.1989 101.269 32.971 100.89 32.4392C97.9267 28.5648 85.9234 12.839 85.4676 11.8513C84.9358 10.7118 76.6551 20.5879 75.3636 24.3104C73.8442 28.7927 73.4644 17.2452 72.7806 15.4979C72.0969 13.7506 66.3991 22.7151 63.4363 23.4748C60.4735 24.2345 59.5618 22.3352 57.5866 25.8298C56.4471 27.957 58.6502 12.839 66.2472 7.82494C71.1853 4.55822 72.5527 12.9909 72.5527 12.9909C75.3636 9.11643 79.0102 5.92568 83.1885 3.64658C89.2661 0.3039 95.1158 0.0759895 102.865 7.29315C107.347 11.4715 111.146 19.8282 110.994 23.7027C110.842 27.4252 114.64 24.2345 115.324 23.4748C116.008 22.7151 122.617 24.4624 121.477 30.0082C120.338 35.554 120.11 35.2501 116.008 38.5168C113.728 40.2642 111.753 42.3913 110.31 44.7464V30.6919C110.234 29.1725 105.828 31.7555 102.561 32.971Z" fill="url(#paint2_linear_132_2439)"/>
<path opacity="0.07" d="M85.4678 42.3913C85.4678 42.3913 90.9376 45.81 93.6725 42.2394C95.4199 39.8843 90.4818 47.1774 91.3175 50.0643C92.1531 52.9512 85.4678 42.3913 85.4678 42.3913Z" fill="black"/>
<path opacity="0.07" d="M95.9516 69.8925L102.865 83.5671L101.269 114.791L119.198 167.362C119.198 167.362 122.921 170.021 112.437 168.881C101.953 167.742 95.1919 167.362 91.8492 167.362C88.5065 167.362 80.6056 164.019 92.6089 152.396C97.471 147.686 96.3314 144.115 92.9887 131.808C89.646 119.501 100.13 121.704 92.9887 111.524C85.8475 101.344 103.093 87.1377 95.9516 69.8925Z" fill="black"/>
</g>
<defs>
<linearGradient id="paint0_linear_132_2439" x1="0.00195312" y1="130.465" x2="125.093" y2="130.465" gradientUnits="userSpaceOnUse">
<stop offset="0.02" stop-color="#F87B58"/>
<stop offset="0.51" stop-color="#F8C548"/>
<stop offset="1" stop-color="#F89C51"/>
</linearGradient>
<linearGradient id="paint1_linear_132_2439" x1="51.7373" y1="110.426" x2="119.369" y2="110.426" gradientUnits="userSpaceOnUse">
<stop stop-color="#F8C547"/>
<stop offset="1" stop-color="#F71D69"/>
</linearGradient>
<linearGradient id="paint2_linear_132_2439" x1="120.731" y1="23.075" x2="60.0143" y2="23.075" gradientUnits="userSpaceOnUse">
<stop stop-color="#4B45BD"/>
<stop offset="1" stop-color="#58CAEA"/>
</linearGradient>
<clipPath id="clip0_132_2439">
<rect width="150.5" height="269.086" fill="white"/>
</clipPath>
</defs>
</svg>
