<svg width="271" height="75" viewBox="0 0 271 75" fill="none" xmlns="http://www.w3.org/2000/svg">
<path d="M88.0664 28.9375V46H84.5508V31.6914H77.6953V46H74.1797V28.9375H88.0664ZM90.3867 39.7891V39.543C90.3867 38.6133 90.5195 37.7578 90.7852 36.9766C91.0508 36.1875 91.4375 35.5039 91.9453 34.9258C92.4531 34.3477 93.0781 33.8984 93.8203 33.5781C94.5625 33.25 95.4141 33.0859 96.375 33.0859C97.3359 33.0859 98.1914 33.25 98.9414 33.5781C99.6914 33.8984 100.32 34.3477 100.828 34.9258C101.344 35.5039 101.734 36.1875 102 36.9766C102.266 37.7578 102.398 38.6133 102.398 39.543V39.7891C102.398 40.7109 102.266 41.5664 102 42.3555C101.734 43.1367 101.344 43.8203 100.828 44.4062C100.32 44.9844 99.6953 45.4336 98.9531 45.7539C98.2109 46.0742 97.3594 46.2344 96.3984 46.2344C95.4375 46.2344 94.582 46.0742 93.832 45.7539C93.0898 45.4336 92.4609 44.9844 91.9453 44.4062C91.4375 43.8203 91.0508 43.1367 90.7852 42.3555C90.5195 41.5664 90.3867 40.7109 90.3867 39.7891ZM93.7617 39.543V39.7891C93.7617 40.3203 93.8086 40.8164 93.9023 41.2773C93.9961 41.7383 94.1445 42.1445 94.3477 42.4961C94.5586 42.8398 94.832 43.1094 95.168 43.3047C95.5039 43.5 95.9141 43.5977 96.3984 43.5977C96.8672 43.5977 97.2695 43.5 97.6055 43.3047C97.9414 43.1094 98.2109 42.8398 98.4141 42.4961C98.6172 42.1445 98.7656 41.7383 98.8594 41.2773C98.9609 40.8164 99.0117 40.3203 99.0117 39.7891V39.543C99.0117 39.0273 98.9609 38.543 98.8594 38.0898C98.7656 37.6289 98.6133 37.2227 98.4023 36.8711C98.1992 36.5117 97.9297 36.2305 97.5938 36.0273C97.2578 35.8242 96.8516 35.7227 96.375 35.7227C95.8984 35.7227 95.4922 35.8242 95.1562 36.0273C94.8281 36.2305 94.5586 36.5117 94.3477 36.8711C94.1445 37.2227 93.9961 37.6289 93.9023 38.0898C93.8086 38.543 93.7617 39.0273 93.7617 39.543ZM105.914 33.3203H109.289L109.184 37.5625C109.152 38.9219 108.996 40.0898 108.715 41.0664C108.434 42.043 108.059 42.8633 107.59 43.5273C107.121 44.1914 106.586 44.7227 105.984 45.1211C105.391 45.5117 104.766 45.8047 104.109 46H103.477L103.441 43.3984L103.793 43.3633C104.191 42.9492 104.52 42.5469 104.777 42.1562C105.035 41.7578 105.234 41.3398 105.375 40.9023C105.516 40.4648 105.617 39.9766 105.68 39.4375C105.75 38.8984 105.793 38.2734 105.809 37.5625L105.914 33.3203ZM106.828 33.3203H115.23V46H111.867V36.0273H106.828V33.3203ZM102.703 43.3633H117.047V49.8086H113.672V46H106.16V49.8086H102.703V43.3633ZM122.004 35.7578V50.875H118.629V33.3203H121.758L122.004 35.7578ZM130.031 39.5195V39.7656C130.031 40.6875 129.922 41.543 129.703 42.332C129.492 43.1211 129.18 43.8086 128.766 44.3945C128.352 44.9727 127.836 45.4258 127.219 45.7539C126.609 46.0742 125.906 46.2344 125.109 46.2344C124.336 46.2344 123.664 46.0781 123.094 45.7656C122.523 45.4531 122.043 45.0156 121.652 44.4531C121.27 43.8828 120.961 43.2227 120.727 42.4727C120.492 41.7227 120.312 40.918 120.188 40.0586V39.4141C120.312 38.4922 120.492 37.6484 120.727 36.8828C120.961 36.1094 121.27 35.4414 121.652 34.8789C122.043 34.3086 122.52 33.8672 123.082 33.5547C123.652 33.2422 124.32 33.0859 125.086 33.0859C125.891 33.0859 126.598 33.2383 127.207 33.543C127.824 33.8477 128.34 34.2852 128.754 34.8555C129.176 35.4258 129.492 36.1055 129.703 36.8945C129.922 37.6836 130.031 38.5586 130.031 39.5195ZM126.645 39.7656V39.5195C126.645 38.9805 126.598 38.4844 126.504 38.0312C126.418 37.5703 126.277 37.168 126.082 36.8242C125.895 36.4805 125.645 36.2148 125.332 36.0273C125.027 35.832 124.656 35.7344 124.219 35.7344C123.758 35.7344 123.363 35.8086 123.035 35.957C122.715 36.1055 122.453 36.3203 122.25 36.6016C122.047 36.8828 121.895 37.2188 121.793 37.6094C121.691 38 121.629 38.4414 121.605 38.9336V40.5625C121.645 41.1406 121.754 41.6602 121.934 42.1211C122.113 42.5742 122.391 42.9336 122.766 43.1992C123.141 43.4648 123.633 43.5977 124.242 43.5977C124.688 43.5977 125.062 43.5 125.367 43.3047C125.672 43.1016 125.918 42.8242 126.105 42.4727C126.301 42.1211 126.438 41.7148 126.516 41.2539C126.602 40.793 126.645 40.2969 126.645 39.7656ZM131.59 39.7891V39.543C131.59 38.6133 131.723 37.7578 131.988 36.9766C132.254 36.1875 132.641 35.5039 133.148 34.9258C133.656 34.3477 134.281 33.8984 135.023 33.5781C135.766 33.25 136.617 33.0859 137.578 33.0859C138.539 33.0859 139.395 33.25 140.145 33.5781C140.895 33.8984 141.523 34.3477 142.031 34.9258C142.547 35.5039 142.938 36.1875 143.203 36.9766C143.469 37.7578 143.602 38.6133 143.602 39.543V39.7891C143.602 40.7109 143.469 41.5664 143.203 42.3555C142.938 43.1367 142.547 43.8203 142.031 44.4062C141.523 44.9844 140.898 45.4336 140.156 45.7539C139.414 46.0742 138.562 46.2344 137.602 46.2344C136.641 46.2344 135.785 46.0742 135.035 45.7539C134.293 45.4336 133.664 44.9844 133.148 44.4062C132.641 43.8203 132.254 43.1367 131.988 42.3555C131.723 41.5664 131.59 40.7109 131.59 39.7891ZM134.965 39.543V39.7891C134.965 40.3203 135.012 40.8164 135.105 41.2773C135.199 41.7383 135.348 42.1445 135.551 42.4961C135.762 42.8398 136.035 43.1094 136.371 43.3047C136.707 43.5 137.117 43.5977 137.602 43.5977C138.07 43.5977 138.473 43.5 138.809 43.3047C139.145 43.1094 139.414 42.8398 139.617 42.4961C139.82 42.1445 139.969 41.7383 140.062 41.2773C140.164 40.8164 140.215 40.3203 140.215 39.7891V39.543C140.215 39.0273 140.164 38.543 140.062 38.0898C139.969 37.6289 139.816 37.2227 139.605 36.8711C139.402 36.5117 139.133 36.2305 138.797 36.0273C138.461 35.8242 138.055 35.7227 137.578 35.7227C137.102 35.7227 136.695 35.8242 136.359 36.0273C136.031 36.2305 135.762 36.5117 135.551 36.8711C135.348 37.2227 135.199 37.6289 135.105 38.0898C135.012 38.543 134.965 39.0273 134.965 39.543ZM153.445 27.7422H156.176C156.176 28.375 156.098 28.918 155.941 29.3711C155.785 29.8164 155.535 30.1992 155.191 30.5195C154.848 30.832 154.387 31.0977 153.809 31.3164C153.23 31.5352 152.516 31.7227 151.664 31.8789C151.008 32.0117 150.438 32.2305 149.953 32.5352C149.477 32.8398 149.082 33.2578 148.77 33.7891C148.465 34.3125 148.246 34.9766 148.113 35.7812C147.98 36.5781 147.934 37.5391 147.973 38.6641V39.2266L145.348 39.5898V39.0273C145.355 37.4961 145.492 36.1641 145.758 35.0312C146.031 33.8984 146.418 32.9453 146.918 32.1719C147.418 31.3906 148.02 30.7695 148.723 30.3086C149.426 29.8398 150.207 29.5117 151.066 29.3242C151.645 29.1992 152.105 29.0781 152.449 28.9609C152.801 28.8359 153.055 28.6797 153.211 28.4922C153.367 28.3047 153.445 28.0547 153.445 27.7422ZM151.969 34.0352C152.828 34.0352 153.59 34.1836 154.254 34.4805C154.918 34.7695 155.477 35.1797 155.93 35.7109C156.383 36.2422 156.727 36.8672 156.961 37.5859C157.195 38.3047 157.312 39.0898 157.312 39.9414V40.1875C157.312 41.0547 157.18 41.8594 156.914 42.6016C156.656 43.3359 156.273 43.9766 155.766 44.5234C155.258 45.0703 154.633 45.4961 153.891 45.8008C153.148 46.0977 152.301 46.2461 151.348 46.2461C150.387 46.2461 149.531 46.0859 148.781 45.7656C148.039 45.4375 147.41 44.9805 146.895 44.3945C146.387 43.8008 146 43.1094 145.734 42.3203C145.477 41.5234 145.348 40.6562 145.348 39.7188V39.4609C145.348 39.3281 145.406 39.1992 145.523 39.0742C145.648 38.9414 145.793 38.793 145.957 38.6289C146.129 38.4648 146.281 38.2578 146.414 38.0078C146.883 37.1406 147.395 36.4141 147.949 35.8281C148.504 35.2344 149.109 34.7891 149.766 34.4922C150.43 34.1875 151.164 34.0352 151.969 34.0352ZM151.324 36.6719C150.691 36.6719 150.184 36.8242 149.801 37.1289C149.418 37.4258 149.141 37.8242 148.969 38.3242C148.805 38.8164 148.723 39.3555 148.723 39.9414V40.1875C148.723 40.6641 148.77 41.1094 148.863 41.5234C148.957 41.9297 149.105 42.293 149.309 42.6133C149.512 42.9258 149.781 43.1719 150.117 43.3516C150.453 43.5234 150.863 43.6094 151.348 43.6094C151.816 43.6094 152.215 43.5234 152.543 43.3516C152.879 43.1719 153.148 42.9258 153.352 42.6133C153.555 42.293 153.703 41.9297 153.797 41.5234C153.891 41.1094 153.938 40.6641 153.938 40.1875V39.9414C153.938 39.4961 153.891 39.0781 153.797 38.6875C153.703 38.2891 153.555 37.9414 153.352 37.6445C153.148 37.3398 152.879 37.1016 152.543 36.9297C152.207 36.7578 151.801 36.6719 151.324 36.6719ZM167.836 38.4414V41.0664H161.391V38.4414H167.836ZM162.516 33.3203V46H159.141V33.3203H162.516ZM170.121 33.3203V46H166.734V33.3203H170.121ZM178.582 46.2344C177.598 46.2344 176.715 46.0781 175.934 45.7656C175.152 45.4453 174.488 45.0039 173.941 44.4414C173.402 43.8789 172.988 43.2266 172.699 42.4844C172.41 41.7344 172.266 40.9375 172.266 40.0938V39.625C172.266 38.6641 172.402 37.7852 172.676 36.9883C172.949 36.1914 173.34 35.5 173.848 34.9141C174.363 34.3281 174.988 33.8789 175.723 33.5664C176.457 33.2461 177.285 33.0859 178.207 33.0859C179.105 33.0859 179.902 33.2344 180.598 33.5312C181.293 33.8281 181.875 34.25 182.344 34.7969C182.82 35.3438 183.18 36 183.422 36.7656C183.664 37.5234 183.785 38.3672 183.785 39.2969V40.7031H173.707V38.4531H180.469V38.1953C180.469 37.7266 180.383 37.3086 180.211 36.9414C180.047 36.5664 179.797 36.2695 179.461 36.0508C179.125 35.832 178.695 35.7227 178.172 35.7227C177.727 35.7227 177.344 35.8203 177.023 36.0156C176.703 36.2109 176.441 36.4844 176.238 36.8359C176.043 37.1875 175.895 37.6016 175.793 38.0781C175.699 38.5469 175.652 39.0625 175.652 39.625V40.0938C175.652 40.6016 175.723 41.0703 175.863 41.5C176.012 41.9297 176.219 42.3008 176.484 42.6133C176.758 42.9258 177.086 43.168 177.469 43.3398C177.859 43.5117 178.301 43.5977 178.793 43.5977C179.402 43.5977 179.969 43.4805 180.492 43.2461C181.023 43.0039 181.48 42.6406 181.863 42.1562L183.504 43.9375C183.238 44.3203 182.875 44.6875 182.414 45.0391C181.961 45.3906 181.414 45.6797 180.773 45.9062C180.133 46.125 179.402 46.2344 178.582 46.2344ZM191.543 46.2344C190.559 46.2344 189.676 46.0781 188.895 45.7656C188.113 45.4453 187.449 45.0039 186.902 44.4414C186.363 43.8789 185.949 43.2266 185.66 42.4844C185.371 41.7344 185.227 40.9375 185.227 40.0938V39.625C185.227 38.6641 185.363 37.7852 185.637 36.9883C185.91 36.1914 186.301 35.5 186.809 34.9141C187.324 34.3281 187.949 33.8789 188.684 33.5664C189.418 33.2461 190.246 33.0859 191.168 33.0859C192.066 33.0859 192.863 33.2344 193.559 33.5312C194.254 33.8281 194.836 34.25 195.305 34.7969C195.781 35.3438 196.141 36 196.383 36.7656C196.625 37.5234 196.746 38.3672 196.746 39.2969V40.7031H186.668V38.4531H193.43V38.1953C193.43 37.7266 193.344 37.3086 193.172 36.9414C193.008 36.5664 192.758 36.2695 192.422 36.0508C192.086 35.832 191.656 35.7227 191.133 35.7227C190.688 35.7227 190.305 35.8203 189.984 36.0156C189.664 36.2109 189.402 36.4844 189.199 36.8359C189.004 37.1875 188.855 37.6016 188.754 38.0781C188.66 38.5469 188.613 39.0625 188.613 39.625V40.0938C188.613 40.6016 188.684 41.0703 188.824 41.5C188.973 41.9297 189.18 42.3008 189.445 42.6133C189.719 42.9258 190.047 43.168 190.43 43.3398C190.82 43.5117 191.262 43.5977 191.754 43.5977C192.363 43.5977 192.93 43.4805 193.453 43.2461C193.984 43.0039 194.441 42.6406 194.824 42.1562L196.465 43.9375C196.199 44.3203 195.836 44.6875 195.375 45.0391C194.922 45.3906 194.375 45.6797 193.734 45.9062C193.094 46.125 192.363 46.2344 191.543 46.2344Z" fill="#00095F"/>
<line x1="2.5" y1="74.0569" x2="2.5" y2="5.96297" stroke="#00095F" stroke-width="5"/>
<line y1="3.46802" x2="270" y2="3.46802" stroke="#00095F" stroke-width="5"/>
<line y1="-2.5" x2="68.0939" y2="-2.5" transform="matrix(0.00094763 1 -1 0.000326445 265.797 1)" stroke="#00095F" stroke-width="5"/>
<line y1="-2.5" x2="270" y2="-2.5" transform="matrix(-1 0.000326445 -0.00094763 -1 270.862 69.0872)" stroke="#00095F" stroke-width="5"/>
</svg>
