<svg width="140" height="261" viewBox="0 0 140 261" fill="none" xmlns="http://www.w3.org/2000/svg">
<g clip-path="url(#clip0_132_2427)">
<path d="M82.4586 254.571C78.4978 254.355 74.0329 249.818 74.0329 249.818L65.1752 248.666C65.1752 248.666 62.4386 257.019 65.3912 258.748C68.3438 260.476 86.1314 260.98 86.1314 258.748C86.1314 256.515 85.8433 254.715 82.4586 254.571Z" fill="#4B49BB"/>
<path d="M22.1826 254.283C18.7259 252.338 16.7815 246.217 16.7815 246.217L9.36405 241.248C9.36405 241.248 3.09879 247.513 5.04318 250.322C6.98757 253.131 22.5427 261.7 23.5509 259.684C24.5591 257.668 25.1352 256.011 22.1826 254.283Z" fill="#4B49BB"/>
<path d="M35.4331 16.4913C35.4331 16.4913 43.9308 -1.51228 57.6135 7.84959C71.2962 17.2115 71.5843 29.5259 67.4795 35.4311C62.6545 42.4165 63.8788 48.1056 64.7429 50.3381C64.959 50.9862 65.4631 51.5623 66.0392 51.8504L89.1558 64.813L98.3737 73.5267L120.554 45.5851C120.554 45.5851 124.155 40.5441 130.636 40.5441C137.117 40.5441 139.998 42.7046 139.998 42.7046C139.998 42.7046 140.718 45.5851 132.797 47.7456L124.875 49.906L104.711 85.9132C104.711 85.9132 98.7337 88.4337 92.3244 83.1046C86.7073 78.4237 81.4503 73.3827 76.6253 67.9096L75.9052 151.446L78.3537 175.355L77.3455 189.47C77.4175 190.766 76.8414 204.737 76.7693 206.033L75.185 227.638L73.2406 249.53L65.175 248.522L63.8068 232.679L60.6381 175.715L60.278 124.225L46.3073 156.487L46.8114 175.283L35.2891 211.002C34.785 212.514 34.2088 213.955 33.4887 215.323L16.9974 246.433L9.21985 241.608L18.0776 219.14C19.0138 217.195 23.6227 202.288 24.1988 200.2L30.104 172.258L55.7411 74.5349L42.8506 81.0882C42.8506 81.0882 33.4167 102.188 31.9764 104.349C30.5361 106.509 13.3247 128.258 12.6045 131.138C11.8844 134.019 9.14783 139.564 5.54711 141.004C1.94639 142.444 -4.5349 144.821 4.82697 131.138C12.1724 120.408 16.8534 112.414 18.5817 109.534C19.0138 108.742 19.4459 107.95 19.806 107.085L29.5279 82.6005L45.011 57.7556L47.0994 56.2433L51.4923 52.7866C52.0684 52.3545 52.3565 51.6343 52.2845 50.9142C51.7803 47.6015 50.052 44.5769 47.3875 42.5605C42.3465 38.5277 32.1204 30.8942 35.4331 16.4913Z" fill="url(#paint0_linear_132_2427)"/>
<path d="M38.4581 125.521L29.8164 172.33L47.0999 175.931L57.902 137.043L60.4945 175.859H78.5701L80.2265 115.439L38.4581 125.521Z" fill="url(#paint1_linear_132_2427)"/>
<path d="M29.168 83.1046C29.168 83.1046 34.7131 63.0846 45.8753 56.4593C47.0275 55.8112 49.0439 53.7228 49.188 54.947C49.404 57.1074 50.6283 62.1485 55.6693 62.1485C63.5909 62.1485 65.8953 55.5231 65.8953 51.9224C65.8953 50.8422 70.3602 51.0582 74.249 51.7064C77.9217 52.2825 81.5944 53.8668 84.0429 56.6033L91.3884 66.9014L84.547 74.4629L82.3866 75.6151L80.2262 115.511C80.2262 115.511 64.311 122.857 49.9801 124.873C46.1634 125.305 42.2746 125.593 38.4578 125.593L41.3384 84.5449L29.168 83.1046Z" fill="url(#paint2_linear_132_2427)"/>
<path d="M40.4018 29.1658C42.9223 26.1412 45.6589 23.3327 48.6115 20.7401C52.7883 17.2834 54.9487 15.267 54.9487 15.267C54.9487 15.267 60.6379 19.4439 62.9423 20.236C65.2468 21.0282 68.7035 22.4685 68.7035 22.4685C68.7035 22.4685 70.6479 15.9872 65.8229 15.195C60.9979 14.4029 46.523 9.14582 43.4984 11.4503C40.4738 13.7547 35.3608 20.3801 34.6407 23.5487C33.9205 26.7173 35.7209 30.8222 36.8731 31.6143C37.5212 32.0464 35.7209 28.3737 36.7291 27.6535C37.4492 27.0054 40.4018 29.1658 40.4018 29.1658Z" fill="url(#paint3_linear_132_2427)"/>
<path d="M34.6413 23.5487L79.7943 12.9626C79.7943 12.9626 80.6585 10.8742 79.0021 10.8022C77.3458 10.7302 67.0478 14.1868 67.0478 14.1868C67.0478 14.1868 62.5829 1.08022 48.036 1.36828C48.036 1.36828 48.6121 0.0720226 47.8199 8.23382e-06C47.0278 -0.0720062 43.283 0.936195 42.9949 1.22425C42.7069 1.51231 43.5711 2.37648 43.139 2.73656C42.7069 3.09663 30.0324 9.14584 34.6413 23.5487Z" fill="#4B49BB"/>
<path opacity="0.07" d="M66.1837 36.9434C66.1837 36.9434 63.2311 40.6161 60.8546 41.4083C58.4781 42.2004 59.8464 42.2724 60.8546 45.225C61.3587 46.8093 62.0789 48.2496 63.015 49.6179C63.015 49.6179 64.3113 38.0236 66.1837 36.9434Z" fill="black"/>
<path opacity="0.07" d="M43.1384 2.80859C43.1384 2.80859 45.1548 4.75298 43.8585 9.866C42.5623 14.979 42.1302 16.5633 43.2104 18.5077C44.2906 20.4521 43.4985 21.5323 43.4985 21.5323L34.6407 23.6208C34.7127 23.5487 29.1676 10.5861 43.1384 2.80859Z" fill="black"/>
<path opacity="0.07" d="M41.3386 84.4729C41.3386 84.4729 44.1471 80.4401 44.4352 76.7674C44.7233 73.0946 43.1389 84.0408 44.9393 90.5941C46.7397 97.1474 44.6512 102.837 48.324 105.141C51.9967 107.446 49.1161 115.295 49.9083 118.68C50.4124 120.696 51.8527 122.352 53.7971 123.145C53.7971 123.145 53.293 124.945 47.0277 125.233C40.7625 125.521 38.458 125.521 38.458 125.521L41.3386 84.4729Z" fill="black"/>
</g>
<defs>
<linearGradient id="paint0_linear_132_2427" x1="-0.00980502" y1="127.341" x2="140.015" y2="127.341" gradientUnits="userSpaceOnUse">
<stop stop-color="#F87B58"/>
<stop offset="0.5" stop-color="#F8C548"/>
<stop offset="1" stop-color="#F89C51"/>
</linearGradient>
<linearGradient id="paint1_linear_132_2427" x1="29.8164" y1="145.685" x2="80.2265" y2="145.685" gradientUnits="userSpaceOnUse">
<stop stop-color="#4B45BD"/>
<stop offset="1" stop-color="#58CAEA"/>
</linearGradient>
<linearGradient id="paint2_linear_132_2427" x1="29.168" y1="88.3797" x2="91.3884" y2="88.3797" gradientUnits="userSpaceOnUse">
<stop stop-color="#F8C547"/>
<stop offset="1" stop-color="#F71D69"/>
</linearGradient>
<linearGradient id="paint3_linear_132_2427" x1="34.5207" y1="21.2601" x2="69.1359" y2="21.2601" gradientUnits="userSpaceOnUse">
<stop stop-color="#4B45BD"/>
<stop offset="1" stop-color="#58CAEA"/>
</linearGradient>
<clipPath id="clip0_132_2427">
<rect width="140" height="260.188" fill="white"/>
</clipPath>
</defs>
</svg>
