<svg width="733" height="523" viewBox="0 0 733 523" fill="none" xmlns="http://www.w3.org/2000/svg">
<g clip-path="url(#clip0_121_370)">
<path d="M17.787 222.414C9.15464 173.017 27.321 117.429 65.3174 98.4058C95.2406 83.4214 141.024 78.4525 202.317 96.6834C364.479 144.909 350.5 89.7941 413.408 46.7356C468.781 8.84422 536.427 -37.6589 653.856 50.1803C742.905 116.792 690.202 220.692 750.314 284.418C788.975 325.401 723.753 523.823 536.427 480.765C349.102 437.706 306.667 498.117 221.888 520.378C136.613 542.769 -39.4731 409.563 8.00133 348.145C35.9604 311.976 23.218 253.468 17.787 222.414Z" fill="#F8F8FF"/>
<path d="M66.3171 234.47C58.894 192.006 74.5091 144.229 107.172 127.875C132.895 114.957 172.247 110.729 224.936 126.394C364.326 167.85 352.31 120.469 406.383 83.4559C453.976 50.8778 512.124 10.911 613.063 86.4183C689.608 143.677 644.308 232.981 695.976 287.759C729.205 322.99 673.147 493.579 512.145 456.549C351.143 419.518 314.649 471.464 241.774 490.599C168.459 509.838 17.0882 395.337 57.9084 342.547C81.9392 311.45 70.9793 261.167 66.3171 234.47Z" fill="#F5F5FC"/>
<path d="M120.739 237.14C114.386 200.781 127.729 159.867 155.723 145.856C177.748 134.825 211.446 131.173 256.564 144.59C375.922 180.088 365.605 139.518 411.94 107.827C452.697 79.9337 502.485 45.7108 588.921 110.359C654.464 159.385 615.671 235.866 659.916 282.765C688.371 312.906 640.344 458.977 502.485 427.286C364.626 395.595 333.375 440.057 270.97 456.445C208.202 472.937 78.5981 374.884 113.547 329.681C134.118 303.062 124.731 259.995 120.739 237.14Z" fill="#BAC6F2"/>
<path d="M142.904 265.472C145.992 265.472 148.496 262.388 148.496 258.583C148.496 254.778 145.992 251.694 142.904 251.694C139.816 251.694 137.312 254.778 137.312 258.583C137.312 262.388 139.816 265.472 142.904 265.472Z" fill="white"/>
<path d="M186.59 220.692C188.327 220.692 189.735 218.957 189.735 216.816C189.735 214.676 188.327 212.941 186.59 212.941C184.853 212.941 183.445 214.676 183.445 216.816C183.445 218.957 184.853 220.692 186.59 220.692Z" fill="white"/>
<path d="M197.424 325.754C199.354 325.754 200.919 323.826 200.919 321.448C200.919 319.07 199.354 317.143 197.424 317.143C195.494 317.143 193.929 319.07 193.929 321.448C193.929 323.826 195.494 325.754 197.424 325.754Z" fill="white"/>
<path d="M167.718 386.036C169.841 386.036 171.562 383.916 171.562 381.3C171.562 378.684 169.841 376.563 167.718 376.563C165.594 376.563 163.873 378.684 163.873 381.3C163.873 383.916 165.594 386.036 167.718 386.036Z" fill="white"/>
<path d="M256.488 405.843C258.611 405.843 260.332 403.722 260.332 401.107C260.332 398.491 258.611 396.37 256.488 396.37C254.364 396.37 252.643 398.491 252.643 401.107C252.643 403.722 254.364 405.843 256.488 405.843Z" fill="white"/>
<path d="M422.494 404.121C424.811 404.121 426.688 401.807 426.688 398.954C426.688 396.1 424.811 393.787 422.494 393.787C420.178 393.787 418.301 396.1 418.301 398.954C418.301 401.807 420.178 404.121 422.494 404.121Z" fill="white"/>
<path d="M491.344 293.03C493.467 293.03 495.188 290.909 495.188 288.293C495.188 285.678 493.467 283.557 491.344 283.557C489.22 283.557 487.499 285.678 487.499 288.293C487.499 290.909 489.22 293.03 491.344 293.03Z" fill="white"/>
<path d="M544.116 227.581C545.661 227.581 546.912 226.039 546.912 224.136C546.912 222.234 545.661 220.692 544.116 220.692C542.572 220.692 541.32 222.234 541.32 224.136C541.32 226.039 542.572 227.581 544.116 227.581Z" fill="white"/>
<path d="M587.103 243.082C589.227 243.082 590.948 240.961 590.948 238.346C590.948 235.73 589.227 233.609 587.103 233.609C584.98 233.609 583.259 235.73 583.259 238.346C583.259 240.961 584.98 243.082 587.103 243.082Z" fill="white"/>
<path d="M618.907 182.8C620.837 182.8 622.402 180.872 622.402 178.494C622.402 176.116 620.837 174.189 618.907 174.189C616.977 174.189 615.412 176.116 615.412 178.494C615.412 180.872 616.977 182.8 618.907 182.8Z" fill="white"/>
<path d="M612.616 357.618C614.546 357.618 616.111 355.69 616.111 353.312C616.111 350.934 614.546 349.006 612.616 349.006C610.686 349.006 609.121 350.934 609.121 353.312C609.121 355.69 610.686 357.618 612.616 357.618Z" fill="white"/>
<path d="M554.951 411.01C557.074 411.01 558.795 408.889 558.795 406.274C558.795 403.658 557.074 401.537 554.951 401.537C552.827 401.537 551.106 403.658 551.106 406.274C551.106 408.889 552.827 411.01 554.951 411.01Z" fill="white"/>
<path d="M345.607 349.867C349.081 349.867 351.898 346.397 351.898 342.116C351.898 337.836 349.081 334.366 345.607 334.366C342.133 334.366 339.316 337.836 339.316 342.116C339.316 346.397 342.133 349.867 345.607 349.867Z" fill="white"/>
<path d="M376.362 265.472C379.836 265.472 382.653 262.002 382.653 257.722C382.653 253.441 379.836 249.971 376.362 249.971C372.888 249.971 370.071 253.441 370.071 257.722C370.071 262.002 372.888 265.472 376.362 265.472Z" fill="white"/>
<path d="M456.744 228.442C460.219 228.442 463.035 224.972 463.035 220.692C463.035 216.411 460.219 212.941 456.744 212.941C453.27 212.941 450.453 216.411 450.453 220.692C450.453 224.972 453.27 228.442 456.744 228.442Z" fill="white"/>
<path d="M456.395 345.561C460.062 345.561 463.035 341.898 463.035 337.38C463.035 332.862 460.062 329.199 456.395 329.199C452.728 329.199 449.755 332.862 449.755 337.38C449.755 341.898 452.728 345.561 456.395 345.561Z" fill="white"/>
<path d="M524.894 334.366C528.562 334.366 531.535 330.703 531.535 326.185C531.535 321.667 528.562 318.004 524.894 318.004C521.227 318.004 518.254 321.667 518.254 326.185C518.254 330.703 521.227 334.366 524.894 334.366Z" fill="white"/>
<path d="M319.745 299.058C323.219 299.058 326.036 295.588 326.036 291.308C326.036 287.027 323.219 283.557 319.745 283.557C316.271 283.557 313.454 287.027 313.454 291.308C313.454 295.588 316.271 299.058 319.745 299.058Z" fill="white"/>
<path d="M360.286 367.952C363.76 367.952 366.576 364.481 366.576 360.201C366.576 355.921 363.76 352.45 360.286 352.45C356.811 352.45 353.995 355.921 353.995 360.201C353.995 364.481 356.811 367.952 360.286 367.952Z" fill="white"/>
<path d="M405.719 308.531C409.193 308.531 412.01 305.061 412.01 300.78C412.01 296.5 409.193 293.03 405.719 293.03C402.245 293.03 399.428 296.5 399.428 300.78C399.428 305.061 402.245 308.531 405.719 308.531Z" fill="white"/>
<path d="M243.207 329.199C246.488 329.199 249.148 325.922 249.148 321.879C249.148 317.836 246.488 314.559 243.207 314.559C239.926 314.559 237.266 317.836 237.266 321.879C237.266 325.922 239.926 329.199 243.207 329.199Z" fill="white"/>
<path d="M303.326 235.306C306.607 235.306 309.267 232.028 309.267 227.986C309.267 223.943 306.607 220.666 303.326 220.666C300.045 220.666 297.385 223.943 297.385 227.986C297.385 232.028 300.045 235.306 303.326 235.306Z" fill="white"/>
<path d="M120.096 378.621L142.904 258.583L240.761 322.31L319.046 291.307L345.607 342.116L360.286 362.785L405.719 299.919L456.045 338.672L523.846 325.754" stroke="white" stroke-width="0.788608" stroke-linecap="round" stroke-linejoin="round"/>
<path d="M321.751 291.342L375.509 256.818L456.744 220.692" stroke="white" stroke-width="0.788608" stroke-miterlimit="10"/>
<path d="M246.702 178.494C248.439 178.494 249.847 176.759 249.847 174.619C249.847 172.479 248.439 170.744 246.702 170.744C244.965 170.744 243.557 172.479 243.557 174.619C243.557 176.759 244.965 178.494 246.702 178.494Z" fill="white"/>
<path d="M474.918 110.462C476.462 110.462 477.714 108.92 477.714 107.017C477.714 105.115 476.462 103.573 474.918 103.573C473.374 103.573 472.122 105.115 472.122 107.017C472.122 108.92 473.374 110.462 474.918 110.462Z" fill="white"/>
<path d="M308.212 195.718C309.949 195.718 311.357 193.983 311.357 191.843C311.357 189.702 309.949 187.967 308.212 187.967C306.475 187.967 305.066 189.702 305.066 191.843C305.066 193.983 306.475 195.718 308.212 195.718Z" fill="white"/>
<path d="M407.117 170.744C408.661 170.744 409.913 169.202 409.913 167.299C409.913 165.397 408.661 163.855 407.117 163.855C405.573 163.855 404.321 165.397 404.321 167.299C404.321 169.202 405.573 170.744 407.117 170.744Z" fill="white"/>
<path d="M241.809 258.583C243.16 258.583 244.256 257.234 244.256 255.569C244.256 253.904 243.16 252.555 241.809 252.555C240.458 252.555 239.363 253.904 239.363 255.569C239.363 257.234 240.458 258.583 241.809 258.583Z" fill="white"/>
<path d="M518.953 139.742C521.269 139.742 523.147 137.428 523.147 134.575C523.147 131.721 521.269 129.408 518.953 129.408C516.637 129.408 514.759 131.721 514.759 134.575C514.759 137.428 516.637 139.742 518.953 139.742Z" fill="white"/>
<path d="M439.27 185.384C440.814 185.384 442.066 183.842 442.066 181.939C442.066 180.037 440.814 178.494 439.27 178.494C437.726 178.494 436.474 180.037 436.474 181.939C436.474 183.842 437.726 185.384 439.27 185.384Z" fill="white"/>
<path d="M156.883 170.744C158.814 170.744 160.378 168.816 160.378 166.438C160.378 164.06 158.814 162.132 156.883 162.132C154.953 162.132 153.389 164.06 153.389 166.438C153.389 168.816 154.953 170.744 156.883 170.744Z" fill="white"/>
<path d="M573.473 295.613C575.404 295.613 576.968 293.686 576.968 291.308C576.968 288.929 575.404 287.002 573.473 287.002C571.543 287.002 569.978 288.929 569.978 291.308C569.978 293.686 571.543 295.613 573.473 295.613Z" fill="white"/>
<path d="M612.616 353.312L573.473 291.308L586.754 237.915L544.116 224.136" stroke="white" stroke-width="0.788608" stroke-miterlimit="10"/>
<path d="M303.326 227.986L319.046 291.308" stroke="white" stroke-width="0.788608" stroke-linecap="round" stroke-linejoin="round"/>
</g>
<g clip-path="url(#clip1_121_370)">
<path d="M170.12 515.078C165.072 514.778 159.38 508.473 159.38 508.473L148.089 506.872C148.089 506.872 144.601 518.481 148.365 520.883C152.128 523.285 174.802 523.985 174.802 520.883C174.802 517.78 174.435 515.278 170.12 515.078Z" fill="#4B49BB"/>
<path d="M93.2862 514.678C88.8799 511.976 86.4014 503.469 86.4014 503.469L76.9463 496.564C76.9463 496.564 68.9599 505.271 71.4384 509.174C73.917 513.077 93.7452 524.986 95.0303 522.184C96.3155 519.382 97.0499 517.08 93.2862 514.678Z" fill="#4B49BB"/>
<path d="M110.177 184.219C110.177 184.219 121.009 159.199 138.45 172.21C155.892 185.22 156.259 202.333 151.027 210.54C144.876 220.247 146.437 228.153 147.538 231.256C147.814 232.157 148.456 232.957 149.191 233.358L178.658 251.372L190.408 263.481L218.681 224.651C218.681 224.651 223.271 217.645 231.533 217.645C239.795 217.645 243.466 220.648 243.466 220.648C243.466 220.648 244.384 224.651 234.287 227.653L224.189 230.655L198.486 280.695C198.486 280.695 190.867 284.197 182.697 276.792C175.537 270.286 168.835 263.281 162.685 255.675L161.767 371.766L164.888 404.992L163.603 424.607C163.695 426.409 162.96 445.824 162.868 447.625L160.849 477.649L158.37 508.073L148.089 506.672L146.345 484.654L142.306 405.492L141.847 333.936L124.038 378.772L124.681 404.892L109.993 454.531C109.351 456.633 108.616 458.634 107.698 460.536L86.6768 503.769L76.7627 497.064L88.0537 465.84C89.2471 463.138 95.1221 442.421 95.8565 439.519L103.384 400.689L136.064 264.882L119.632 273.989C119.632 273.989 107.607 303.312 105.771 306.315C103.935 309.317 81.9951 339.541 81.0772 343.544C80.1592 347.547 76.6709 355.253 72.081 357.255C67.4912 359.256 59.2294 362.559 71.1631 343.544C80.5264 328.632 86.4932 317.524 88.6963 313.52C89.2471 312.42 89.7979 311.319 90.2569 310.118L102.65 276.091L122.386 241.564L125.048 239.462L130.648 234.659C131.382 234.058 131.749 233.057 131.657 232.057C131.015 227.453 128.812 223.25 125.415 220.447C118.989 214.843 105.954 204.235 110.177 184.219Z" fill="url(#paint0_linear_121_370)"/>
<path d="M114.032 335.738L103.017 400.789L125.048 405.793L138.818 351.75L142.122 405.693H165.163L167.275 321.727L114.032 335.738Z" fill="url(#paint1_linear_121_370)"/>
<path d="M102.191 276.792C102.191 276.792 109.259 248.97 123.487 239.763C124.956 238.862 127.527 235.96 127.71 237.661C127.986 240.663 129.546 247.669 135.972 247.669C146.07 247.669 149.007 238.462 149.007 233.458C149.007 231.956 154.699 232.257 159.656 233.157C164.337 233.958 169.019 236.16 172.14 239.963L181.503 254.274L172.783 264.782L170.029 266.383L167.275 321.827C167.275 321.827 146.988 332.035 128.72 334.837C123.855 335.438 118.898 335.838 114.032 335.838L117.704 278.793L102.191 276.792Z" fill="url(#paint2_linear_121_370)"/>
<path d="M116.511 201.833C119.724 197.63 123.212 193.727 126.976 190.124C132.3 185.32 135.054 182.518 135.054 182.518C135.054 182.518 142.306 188.322 145.243 189.423C148.181 190.524 152.587 192.526 152.587 192.526C152.587 192.526 155.066 183.519 148.915 182.418C142.765 181.317 124.314 174.011 120.458 177.214C116.603 180.416 110.085 189.623 109.167 194.027C108.249 198.43 110.544 204.135 112.013 205.236C112.839 205.836 110.544 200.732 111.829 199.731C112.747 198.831 116.511 201.833 116.511 201.833Z" fill="url(#paint3_linear_121_370)"/>
<path d="M109.167 194.027L166.724 179.315C166.724 179.315 167.826 176.413 165.714 176.313C163.603 176.213 150.476 181.017 150.476 181.017C150.476 181.017 144.784 162.802 126.241 163.203C126.241 163.203 126.976 161.401 125.966 161.301C124.956 161.201 120.183 162.602 119.816 163.003C119.448 163.403 120.55 164.604 119.999 165.104C119.448 165.605 103.292 174.011 109.167 194.027Z" fill="#4B49BB"/>
<path opacity="0.07" d="M149.374 212.641C149.374 212.641 145.611 217.745 142.581 218.846C139.552 219.947 141.296 220.047 142.581 224.15C143.224 226.352 144.142 228.354 145.335 230.255C145.335 230.255 146.988 214.143 149.374 212.641Z" fill="black"/>
<path opacity="0.07" d="M119.999 165.204C119.999 165.204 122.569 167.906 120.917 175.012C119.265 182.117 118.714 184.319 120.091 187.021C121.468 189.723 120.458 191.225 120.458 191.225L109.167 194.127C109.259 194.027 102.191 176.013 119.999 165.204Z" fill="black"/>
<path opacity="0.07" d="M117.704 278.693C117.704 278.693 121.284 273.089 121.652 267.985C122.019 262.881 119.999 278.093 122.294 287.2C124.589 296.307 121.927 304.213 126.609 307.416C131.29 310.618 127.618 321.527 128.628 326.23C129.271 329.033 131.107 331.334 133.585 332.435C133.585 332.435 132.943 334.937 124.956 335.337C116.97 335.738 114.032 335.738 114.032 335.738L117.704 278.693Z" fill="black"/>
</g>
<g clip-path="url(#clip2_121_370)">
<path d="M590.248 507.172C590.248 507.172 583.275 515.137 578.046 515.443C573.592 515.648 573.01 517.486 573.01 520.651C573.01 523.817 592.378 523.204 598.673 521.979C603.128 521.162 600.029 507.376 600.029 507.376L590.248 507.172Z" fill="#4B49BB"/>
<path d="M651.741 505.742L642.929 506.661C642.929 506.661 636.344 514.729 631.211 515.443C626.756 516.056 625.691 518.098 625.885 521.264C626.079 524.43 647.964 522.285 651.741 519.63C655.518 516.975 651.741 505.742 651.741 505.742Z" fill="#4B49BB"/>
<path d="M634.31 185.911C632.567 206.641 630.824 206.131 625.304 213.381C622.592 216.955 618.138 221.346 617.654 225.941C617.557 226.962 617.944 227.881 618.719 228.596L624.529 233.498L626.95 235.438C627.144 235.642 627.338 235.847 627.434 236.051L647.577 270.873L647.674 270.975L660.166 296.096C660.941 297.627 659.779 302.427 658.617 303.755C652.613 310.494 638.765 317.642 640.798 324.382C647.48 346.644 642.057 341.436 638.184 337.862C636.15 335.921 633.438 326.731 632.47 322.646C631.502 318.562 649.901 299.159 647.964 296.096C646.221 293.236 632.567 272.507 630.436 269.239C630.243 268.933 630.049 268.728 629.662 268.524L616.782 261.478C615.814 260.967 614.555 261.376 614.07 262.397C613.877 262.806 613.78 263.214 613.877 263.725L633.632 384.529V384.631L637.118 416.9C637.118 416.9 637.118 417.002 637.118 417.105C637.215 420.985 638.861 439.366 639.249 443.042C640.217 450.395 641.863 453.969 643.122 460.811L651.257 503.394C651.451 504.619 652.419 507.785 651.257 507.989L644.575 508.091C643.607 508.193 642.638 506.151 642.348 505.13L628.112 459.483C627.144 456.011 622.302 446.106 620.946 438.447C619.009 427.929 617.169 415.981 616.298 411.386L612.134 386.265C612.037 385.448 612.327 384.529 613.005 384.121L623.948 376.768C624.82 376.258 625.11 375.134 624.723 374.113L612.618 343.376C612.134 342.253 610.972 341.844 609.906 342.253C609.132 342.661 608.647 343.478 608.744 344.397L612.327 381.67C612.327 381.772 612.327 381.976 612.327 382.078L610.197 409.854C610.197 409.956 610.197 409.956 610.197 410.058L604.387 447.025C604.387 447.127 604.387 447.127 604.387 447.229L600.126 505.64C600.029 506.763 599.835 509.214 598.867 509.214L591.701 509.521C590.538 509.521 590.054 506.763 590.054 505.538L589.861 475.924V475.822L588.505 455.092C588.505 455.092 588.505 454.99 588.505 454.888C587.827 450.701 588.311 441.715 588.505 435.383C588.795 426.704 589.473 421.802 589.57 420.27L590.248 396.068C590.248 395.966 590.248 395.864 590.248 395.762L586.665 368.905C586.665 368.803 586.665 368.701 586.665 368.599V256.27C586.665 255.045 585.793 254.126 584.631 254.126C583.953 254.126 583.372 254.432 582.985 255.045C578.24 262.193 572.623 268.83 566.329 274.549C560.518 279.655 556.935 280.574 555.192 280.676C554.514 280.676 553.836 280.37 553.449 279.757L522.46 234.213C522.073 233.6 521.298 233.294 520.62 233.294L515.972 233.804C515.875 233.804 515.681 233.804 515.585 233.804C508.419 233.089 504.351 230.843 501.93 229.924C501.156 229.617 500.768 228.801 501.059 228.086C501.156 227.779 501.349 227.575 501.543 227.371C505.223 224.614 509.677 222.98 514.229 222.776C519.458 222.878 524.688 224.307 529.336 226.86C529.53 226.962 529.82 227.167 529.917 227.371L555.483 261.376C556.16 262.295 557.419 262.499 558.291 261.784C558.485 261.682 558.581 261.478 558.678 261.274L568.846 245.956C569.04 245.65 569.234 245.446 569.524 245.344L599.545 227.167C600.319 226.656 600.997 225.941 601.288 225.022C602.353 221.857 603.515 218.691 599.06 209.603C595.961 203.271 592.572 177.946 610.584 164.671C614.264 161.914 612.424 166.713 615.523 166.713C627.434 166.713 631.986 180.805 631.986 180.805" fill="url(#paint4_linear_121_370)"/>
<path d="M599.641 227.473C599.641 232.579 602.74 241.974 613.102 241.974C619.784 241.974 621.333 234.723 621.721 231.762C621.914 230.026 624.529 232.987 626.079 233.906C640.895 243.301 648.158 271.69 648.158 271.69L632.179 273.63L630.146 315.6L653 386.265C653.387 387.388 652.806 388.614 651.741 389.022C651.451 389.124 651.16 389.124 650.773 389.124C641.863 387.899 617.46 384.836 613.005 388.103C601.578 396.273 572.623 392.699 572.623 389.635C572.623 385.142 586.278 309.779 586.278 309.779L578.143 260.865L575.819 258.925L566.91 249.224L575.916 234.009C579.111 230.128 583.953 227.881 588.795 227.065C591.216 226.656 593.734 226.452 596.155 226.35C598.189 226.554 599.641 226.758 599.641 227.473Z" fill="url(#paint5_linear_121_370)"/>
<path d="M631.695 205.62C630.921 205.926 630.049 205.62 629.565 204.905C625.788 199.697 610.487 178.559 609.906 177.231C609.229 175.7 598.673 188.975 597.027 193.979C595.09 200.003 594.606 184.482 593.734 182.133C592.863 179.784 585.6 191.834 581.823 192.855C578.046 193.876 576.884 191.324 574.366 196.021C572.914 198.88 575.722 178.559 585.406 171.819C591.701 167.428 593.444 178.763 593.444 178.763C597.027 173.555 601.675 169.266 607.001 166.203C614.748 161.71 622.205 161.403 632.083 171.104C637.796 176.721 642.638 187.954 642.444 193.162C642.251 198.165 647.093 193.876 647.964 192.855C648.836 191.834 657.261 194.183 655.808 201.637C654.356 209.092 654.065 208.683 648.836 213.074C645.931 215.423 643.413 218.282 641.573 221.448V202.556C641.476 200.514 635.859 203.986 631.695 205.62Z" fill="url(#paint6_linear_121_370)"/>
<path opacity="0.07" d="M609.906 218.282C609.906 218.282 616.879 222.878 620.365 218.078C622.592 214.913 616.298 224.716 617.363 228.596C618.428 232.477 609.906 218.282 609.906 218.282Z" fill="black"/>
<path opacity="0.07" d="M623.27 255.249L632.083 273.63L630.049 315.6L652.903 386.265C652.903 386.265 657.648 389.839 644.284 388.308C630.921 386.776 622.302 386.265 618.041 386.265C613.78 386.265 603.709 381.772 619.009 366.148C625.207 359.817 623.754 355.017 619.494 338.474C615.233 321.931 628.596 324.893 619.494 311.209C610.391 297.525 632.373 278.429 623.27 255.249Z" fill="black"/>
</g>
<g clip-path="url(#clip3_121_370)">
<path d="M337.58 477.549H554.896C554.896 477.549 563.014 477.097 563.014 467.122V447.458H329.019V471.44C329.588 473.291 330.719 474.893 332.239 475.997C333.758 477.101 335.58 477.647 337.423 477.549" fill="#BAC5F4"/>
<path d="M329.019 298.506L328.876 454.98L563.014 452.724V293.993C563.014 293.993 564.441 284.965 555.324 284.965H337.851C337.851 284.965 328.02 284.965 329.019 298.642" fill="#BAC5F4"/>
<path d="M427.468 519.526V476.044L461.711 477.549V515.764L427.468 519.526Z" fill="#BAC5F4"/>
<path d="M373.107 515.163L515.402 515.208L515.488 522.685H373.107V515.163Z" fill="#BAC5F4"/>
<path d="M443.919 458.14C445.274 458.14 446.598 458.563 447.724 459.357C448.85 460.151 449.728 461.278 450.247 462.598C450.765 463.918 450.901 465.37 450.636 466.771C450.372 468.172 449.72 469.458 448.762 470.468C447.804 471.478 446.584 472.166 445.255 472.445C443.927 472.724 442.55 472.581 441.298 472.034C440.047 471.487 438.977 470.562 438.225 469.374C437.472 468.186 437.071 466.79 437.071 465.362C437.071 463.446 437.792 461.61 439.076 460.255C440.361 458.901 442.103 458.14 443.919 458.14Z" fill="white"/>
<path d="M555.88 292.488H336.153V444.448H555.88V292.488Z" fill="#F8F8FF"/>
<path d="M347.182 300.312C347.859 300.312 348.521 300.524 349.085 300.92C349.648 301.317 350.087 301.881 350.346 302.541C350.605 303.201 350.673 303.927 350.541 304.627C350.409 305.328 350.082 305.971 349.603 306.476C349.125 306.981 348.515 307.325 347.85 307.464C347.186 307.604 346.497 307.532 345.872 307.259C345.246 306.985 344.711 306.523 344.335 305.929C343.959 305.335 343.758 304.637 343.758 303.923C343.758 302.965 344.119 302.047 344.761 301.369C345.403 300.692 346.274 300.312 347.182 300.312Z" fill="#FA5F5D"/>
<path d="M358.882 300.312C359.559 300.312 360.221 300.524 360.784 300.92C361.348 301.317 361.786 301.881 362.046 302.541C362.305 303.201 362.373 303.927 362.241 304.627C362.108 305.328 361.782 305.971 361.303 306.476C360.824 306.981 360.214 307.325 359.55 307.464C358.886 307.604 358.197 307.532 357.572 307.259C356.946 306.985 356.411 306.523 356.035 305.929C355.658 305.335 355.458 304.637 355.458 303.923C355.458 303.449 355.546 302.979 355.718 302.541C355.89 302.103 356.143 301.705 356.461 301.369C356.778 301.034 357.156 300.768 357.572 300.587C357.987 300.405 358.432 300.312 358.882 300.312Z" fill="#FDBC4E"/>
<path d="M371.152 300.312C371.83 300.312 372.492 300.524 373.055 300.92C373.618 301.317 374.057 301.881 374.316 302.541C374.575 303.201 374.643 303.927 374.511 304.627C374.379 305.328 374.053 305.971 373.574 306.476C373.095 306.981 372.485 307.325 371.82 307.464C371.156 307.604 370.468 307.532 369.842 307.259C369.216 306.985 368.681 306.523 368.305 305.929C367.929 305.335 367.728 304.637 367.728 303.923C367.728 302.965 368.089 302.047 368.731 301.369C369.373 300.692 370.244 300.312 371.152 300.312Z" fill="#37CD58"/>
<path d="M418.907 326.717C418.856 327.663 418.452 328.549 417.784 329.183C417.116 329.817 416.238 330.147 415.34 330.102H373.25C371.081 330.102 368.969 328.597 368.969 326.717V319.961C368.969 318.081 371.038 316.561 373.25 316.561H415.255C416.154 316.482 417.048 316.78 417.74 317.391C418.432 318.003 418.867 318.878 418.95 319.826C418.95 319.826 418.95 319.916 418.95 319.961L418.907 326.717Z" fill="url(#paint7_linear_121_370)"/>
<path d="M520.21 371.658C520.179 372.161 520.055 372.652 519.844 373.104C519.633 373.557 519.339 373.96 518.98 374.293C518.621 374.625 518.204 374.88 517.751 375.042C517.299 375.205 516.821 375.271 516.344 375.239H373.25C371.053 375.239 368.969 373.644 368.969 371.658V338.197C368.969 336.211 371.067 334.616 373.25 334.616H516.329C516.806 334.581 517.285 334.646 517.738 334.806C518.191 334.966 518.61 335.219 518.97 335.551C519.331 335.882 519.626 336.285 519.839 336.736C520.051 337.187 520.178 337.679 520.21 338.181V371.658Z" fill="url(#paint8_linear_121_370)"/>
<path d="M416.054 400.169C416.054 400.653 415.963 401.131 415.787 401.578C415.612 402.024 415.354 402.429 415.029 402.771C414.704 403.112 414.319 403.382 413.895 403.565C413.471 403.749 413.017 403.842 412.558 403.84H373.25C371.038 403.84 368.969 402.2 368.969 400.184V381.889C368.969 379.888 371.081 378.248 373.25 378.248H412.316C412.772 378.215 413.23 378.278 413.664 378.433C414.097 378.588 414.497 378.832 414.841 379.151C415.184 379.47 415.465 379.858 415.666 380.291C415.866 380.725 415.984 381.196 416.011 381.678C416.011 381.678 416.011 381.814 416.011 381.889L416.054 400.169Z" fill="url(#paint9_linear_121_370)"/>
<path d="M467.419 400.169C467.422 400.649 467.336 401.124 467.165 401.568C466.994 402.013 466.742 402.417 466.423 402.758C466.103 403.099 465.723 403.37 465.304 403.556C464.885 403.742 464.435 403.838 463.98 403.84H424.615C422.389 403.84 420.334 402.2 420.334 400.184V381.889C420.334 379.888 422.474 378.248 424.615 378.248H463.723C464.637 378.19 465.535 378.518 466.22 379.158C466.905 379.799 467.321 380.7 467.376 381.663C467.376 381.738 467.376 381.814 467.376 381.889L467.419 400.169Z" fill="url(#paint10_linear_121_370)"/>
<path d="M520.21 400.169C520.151 401.201 519.707 402.165 518.973 402.851C518.24 403.537 517.279 403.887 516.301 403.825H477.235C476.233 403.901 475.243 403.561 474.476 402.878C473.708 402.195 473.224 401.223 473.126 400.169V381.889C473.227 380.838 473.713 379.869 474.48 379.19C475.247 378.51 476.236 378.172 477.235 378.248H516.287C516.771 378.215 517.257 378.284 517.716 378.449C518.175 378.614 518.599 378.873 518.964 379.211C519.328 379.55 519.626 379.96 519.839 380.419C520.053 380.879 520.179 381.378 520.21 381.889V400.169Z" fill="url(#paint11_linear_121_370)"/>
<path d="M467.419 410.596C467.284 410.93 467.077 411.227 466.814 411.462C466.552 411.697 466.241 411.864 465.906 411.95C465.82 411.95 465.735 411.95 465.649 411.348H422.503C421.618 411.95 420.306 411.423 420.334 410.596V410.009C420.334 409.182 421.618 408.505 422.503 408.339H465.649C465.981 408.404 466.285 408.575 466.523 408.827C466.76 409.08 466.918 409.403 466.976 409.753C466.976 409.844 466.976 409.919 467.419 410.009V410.596Z" fill="#E9EDFB"/>
<path d="M467.419 416.524C467.292 416.89 467.083 417.218 466.81 417.48C466.536 417.742 466.207 417.93 465.849 418.028C465.849 418.028 465.721 418.028 465.649 417.381H422.503C421.618 418.043 420.306 417.381 420.334 416.539V415.862C420.334 415.049 421.618 414.583 422.503 414.357H465.649C466.026 414.467 466.378 414.657 466.682 414.916C466.987 415.175 467.237 415.497 467.419 415.862V416.524Z" fill="#E9EDFB"/>
<path d="M467.419 422.467C467.283 422.874 467.05 423.237 466.743 423.522C466.435 423.806 466.064 424.003 465.664 424.092C465.641 423.857 465.641 423.62 465.664 423.385H422.517C422.325 423.517 422.106 423.598 421.878 423.622C421.649 423.645 421.419 423.611 421.206 423.521C420.994 423.431 420.805 423.288 420.655 423.104C420.506 422.921 420.401 422.702 420.349 422.467V421.88C420.349 421.068 421.633 420.737 422.517 420.376H465.664C466.041 420.485 466.392 420.675 466.697 420.934C467.001 421.193 467.251 421.515 467.433 421.88L467.419 422.467Z" fill="#E9EDFB"/>
<path d="M467.419 428.395C467 429.352 466.397 430.208 465.649 430.907H422.503C421.618 430.155 420.306 429.222 420.334 428.395V427.808C420.334 426.981 421.618 426.108 422.503 426.394H465.649C465.825 426.349 466.008 426.351 466.183 426.399C466.358 426.448 466.519 426.541 466.652 426.67C466.785 426.8 466.885 426.961 466.944 427.142C467.003 427.322 467.019 427.514 466.99 427.703C466.99 427.703 466.991 427.703 467.419 427.808V428.395Z" fill="#E9EDFB"/>
<path d="M443.477 434.323C443.477 435.06 443.006 435.421 442.193 435.421H422.332C421.533 435.421 420.349 435.06 420.349 434.323V433.781C420.349 433.044 421.533 432.427 422.332 432.427H442.207C442.376 432.427 442.543 432.462 442.699 432.53C442.854 432.598 442.996 432.698 443.115 432.824C443.234 432.949 443.329 433.099 443.393 433.263C443.458 433.427 443.491 433.603 443.491 433.781L443.477 434.323Z" fill="#E9EDFB"/>
<path d="M520.21 410.596C519.397 411.423 519.54 411.95 518.655 411.348H475.494C474.767 412.01 474.068 411.453 474.068 410.686C474.068 410.686 474.068 410.686 474.553 410.596V410.009C474.11 409.212 474.738 408.505 475.494 408.339H518.655C519.54 408.58 519.397 409.182 520.21 410.009V410.596Z" fill="#E9EDFB"/>
<path d="M520.21 416.524C519.397 417.351 519.54 418.028 518.655 417.366H475.494C474.71 418.028 474.068 417.366 474.553 416.524V415.862C474.068 415.049 474.667 414.583 475.494 414.357H518.655C519.54 414.658 519.397 415.125 520.21 415.862V416.524Z" fill="#E9EDFB"/>
<path d="M520.21 422.467C519.397 423.279 519.54 424.092 518.655 423.385H475.494C474.681 424.032 474.068 423.385 474.553 422.467V421.88C474.068 421.068 474.667 420.737 475.494 420.376H518.655C519.54 420.722 519.397 421.053 520.21 421.88V422.467Z" fill="#E9EDFB"/>
<path d="M520.21 428.395C519.397 429.222 519.54 430.155 518.655 430.907H475.494C474.653 430.05 474.067 429.282 474.553 428.395V427.808C474.426 427.659 474.352 427.469 474.341 427.269C474.33 427.069 474.384 426.871 474.493 426.708C474.602 426.544 474.76 426.424 474.942 426.367C475.123 426.31 475.318 426.319 475.494 426.394H518.655C519.54 426.108 519.397 426.981 520.21 427.808V428.395Z" fill="#E9EDFB"/>
<path d="M496.483 434.323C496.483 435.06 496.482 435.421 495.726 435.421H475.837C475.038 435.421 474.553 435.06 474.553 434.323V433.781C474.553 433.422 474.688 433.078 474.929 432.824C475.169 432.57 475.496 432.427 475.837 432.427H495.698C496.497 432.427 496.454 433.089 496.454 433.781L496.483 434.323Z" fill="#E9EDFB"/>
<path d="M414.627 410.596C415.183 411.423 414.87 411.95 413.985 411.348H370.824C370.667 411.479 370.48 411.564 370.282 411.596C370.083 411.628 369.881 411.604 369.694 411.529C369.507 411.453 369.342 411.327 369.215 411.163C369.088 411 369.003 410.804 368.969 410.596V410.009C369.112 409.584 369.359 409.205 369.685 408.912C370.01 408.619 370.403 408.421 370.824 408.339H413.985C414.87 408.58 415.183 409.182 414.627 410.009V410.596Z" fill="#E9EDFB"/>
<path d="M414.627 416.524C415.183 417.351 414.87 418.028 413.985 417.366H370.824C369.968 418.074 369.24 417.366 368.969 416.524V415.862C369.155 415.049 369.94 414.583 370.824 414.357H413.985C414.87 414.658 415.183 415.125 414.627 415.862V416.524Z" fill="#E9EDFB"/>
<path d="M414.627 422.467C415.183 423.279 414.87 424.092 413.985 423.385H370.824C369.954 424.077 369.24 423.385 368.969 422.467V421.88C369.155 421.068 369.94 420.737 370.824 420.376H413.985C414.87 420.722 415.183 421.053 414.627 421.88V422.467Z" fill="#E9EDFB"/>
<path d="M401.786 426.394H413.985C414.87 426.108 415.183 426.981 414.627 427.808V428.395C415.183 429.222 414.87 430.155 413.985 430.907H370.824C369.988 430.278 369.343 429.404 368.969 428.395V427.808C369.001 427.585 369.074 427.372 369.184 427.179C369.295 426.987 369.441 426.82 369.614 426.688C369.787 426.557 369.983 426.463 370.191 426.412C370.399 426.361 370.614 426.355 370.824 426.394H401.786Z" fill="#E9EDFB"/>
<path d="M393.225 434.323C393.225 435.06 392.825 435.421 391.955 435.421H370.553C369.697 435.421 368.927 435.06 368.927 434.323V433.781C368.992 433.384 369.195 433.027 369.495 432.777C369.795 432.527 370.172 432.403 370.553 432.427H391.955C392.117 432.421 392.279 432.449 392.431 432.509C392.583 432.57 392.722 432.662 392.84 432.779C392.959 432.897 393.053 433.038 393.119 433.194C393.185 433.351 393.221 433.52 393.225 433.691C393.225 433.691 393.225 433.691 393.225 433.796V434.323Z" fill="#E9EDFB"/>
</g>
<g clip-path="url(#clip4_121_370)">
<path d="M332.973 495.168H289.87C289.47 495.168 289.147 495.51 289.147 495.931C289.147 496.352 289.47 496.693 289.87 496.693H332.973C333.372 496.693 333.696 496.352 333.696 495.931C333.696 495.51 333.372 495.168 332.973 495.168Z" fill="#F4F4F4"/>
<path d="M332.973 497.914H289.87C289.47 497.914 289.147 498.255 289.147 498.676C289.147 499.097 289.47 499.439 289.87 499.439H332.973C333.372 499.439 333.696 499.097 333.696 498.676C333.696 498.255 333.372 497.914 332.973 497.914Z" fill="#F4F4F4"/>
<path d="M332.973 500.659H289.87C289.47 500.659 289.147 501 289.147 501.422C289.147 501.843 289.47 502.184 289.87 502.184H332.973C333.372 502.184 333.696 501.843 333.696 501.422C333.696 501 333.372 500.659 332.973 500.659Z" fill="#F4F4F4"/>
<path d="M339.048 509.505H299.705C299.306 509.505 298.982 509.847 298.982 510.268C298.982 510.689 299.306 511.031 299.705 511.031H339.048C339.447 511.031 339.771 510.689 339.771 510.268C339.771 509.847 339.447 509.505 339.048 509.505Z" fill="#F4F4F4"/>
<path d="M339.048 512.251H299.705C299.306 512.251 298.982 512.592 298.982 513.013C298.982 513.435 299.306 513.776 299.705 513.776H339.048C339.447 513.776 339.771 513.435 339.771 513.013C339.771 512.592 339.447 512.251 339.048 512.251Z" fill="#F4F4F4"/>
<path d="M339.048 514.996H299.705C299.306 514.996 298.982 515.338 298.982 515.759C298.982 516.18 299.306 516.521 299.705 516.521H339.048C339.447 516.521 339.771 516.18 339.771 515.759C339.771 515.338 339.447 514.996 339.048 514.996Z" fill="#F4F4F4"/>
<path d="M231.964 492.243C231.964 492.243 226.083 492.728 226.083 498.829C226.083 504.93 232.158 505.235 232.158 505.235L334.564 505.54V503.709H288.857C288.857 503.709 287.411 504.015 287.7 501.574V495.168C287.684 494.803 287.807 494.446 288.041 494.176C288.275 493.906 288.601 493.745 288.947 493.728H289.077C291.128 493.704 333.985 494.253 333.985 494.253V491.813L231.964 492.243Z" fill="url(#paint12_linear_121_370)"/>
<path d="M236.28 505.259C236.28 505.259 229.916 505.97 229.916 512.742C229.916 518.538 234.377 519.865 235.653 520.127C235.843 520.166 236.037 520.185 236.231 520.185L340.763 520.313L340.673 518.05L300.139 517.928C300.139 517.928 297.536 517.894 297.825 515.213V509.481C297.825 509.481 297.536 507.37 299.85 507.37C301.875 507.37 340.06 507.818 340.06 507.818V504.93L236.28 505.259Z" fill="url(#paint13_linear_121_370)"/>
<path d="M295.308 495.168H298.78C299.774 495.902 300.492 496.982 300.805 498.219C301.383 500.354 300.805 500.964 301.962 503.404C302.644 504.841 303.446 505.793 303.987 506.76C304.099 506.964 304.247 508.355 304.276 508.59L304.565 512.251L303.119 511.336L301.672 512.861C301.672 512.861 301.672 507.98 301.094 507.065C300.515 506.15 298.233 502.794 298.49 500.354C298.78 497.609 297.912 496.693 295.308 495.168Z" fill="#F8246A"/>
<path d="M359.54 428.058H351.631C349.714 428.058 348.16 429.697 348.16 431.719V518.657C348.16 520.678 349.714 522.317 351.631 522.317H359.54C361.457 522.317 363.012 520.678 363.012 518.657V431.719C363.012 429.697 361.457 428.058 359.54 428.058Z" fill="url(#paint14_linear_121_370)"/>
<path d="M194.939 427.448H187.03C185.113 427.448 183.559 429.087 183.559 431.108V518.047C183.559 520.068 185.113 521.707 187.03 521.707H194.939C196.856 521.707 198.411 520.068 198.411 518.047V431.108C198.411 429.087 196.856 427.448 194.939 427.448Z" fill="url(#paint15_linear_121_370)"/>
<path d="M385.087 462.003L379.4 465.465C377.74 466.476 377.171 468.715 378.13 470.466L405.623 520.681C406.582 522.431 408.705 523.031 410.365 522.02L416.052 518.558C417.712 517.547 418.281 515.309 417.323 513.558L389.829 463.343C388.871 461.592 386.748 460.992 385.087 462.003Z" fill="url(#paint16_linear_121_370)"/>
<path d="M374.195 441.48H366.286C364.369 441.48 362.815 443.119 362.815 445.141V518.657C362.815 520.678 364.369 522.317 366.286 522.317H374.195C376.112 522.317 377.667 520.678 377.667 518.657V445.141C377.667 443.119 376.112 441.48 374.195 441.48Z" fill="url(#paint17_linear_121_370)"/>
<path d="M209.884 430.803H201.975C200.057 430.803 198.503 432.442 198.503 434.464V518.047C198.503 520.068 200.057 521.707 201.975 521.707H209.884C211.801 521.707 213.355 520.068 213.355 518.047V434.464C213.355 432.442 211.801 430.803 209.884 430.803Z" fill="url(#paint18_linear_121_370)"/>
</g>
<defs>
<linearGradient id="paint0_linear_121_370" x1="64.9976" y1="338.266" x2="243.488" y2="338.266" gradientUnits="userSpaceOnUse">
<stop stop-color="#F87B58"/>
<stop offset="0.5" stop-color="#F8C548"/>
<stop offset="1" stop-color="#F89C51"/>
</linearGradient>
<linearGradient id="paint1_linear_121_370" x1="103.017" y1="363.76" x2="167.275" y2="363.76" gradientUnits="userSpaceOnUse">
<stop stop-color="#4B45BD"/>
<stop offset="1" stop-color="#58CAEA"/>
</linearGradient>
<linearGradient id="paint2_linear_121_370" x1="102.191" y1="284.122" x2="181.503" y2="284.122" gradientUnits="userSpaceOnUse">
<stop stop-color="#F8C547"/>
<stop offset="1" stop-color="#F71D69"/>
</linearGradient>
<linearGradient id="paint3_linear_121_370" x1="109.014" y1="190.846" x2="153.138" y2="190.846" gradientUnits="userSpaceOnUse">
<stop stop-color="#4B45BD"/>
<stop offset="1" stop-color="#58CAEA"/>
</linearGradient>
<linearGradient id="paint4_linear_121_370" x1="500.962" y1="336.669" x2="660.417" y2="336.669" gradientUnits="userSpaceOnUse">
<stop offset="0.02" stop-color="#F87B58"/>
<stop offset="0.51" stop-color="#F8C548"/>
<stop offset="1" stop-color="#F89C51"/>
</linearGradient>
<linearGradient id="paint5_linear_121_370" x1="566.91" y1="309.732" x2="653.12" y2="309.732" gradientUnits="userSpaceOnUse">
<stop stop-color="#F8C547"/>
<stop offset="1" stop-color="#F71D69"/>
</linearGradient>
<linearGradient id="paint6_linear_121_370" x1="654.856" y1="192.318" x2="577.461" y2="192.318" gradientUnits="userSpaceOnUse">
<stop stop-color="#4B45BD"/>
<stop offset="1" stop-color="#58CAEA"/>
</linearGradient>
<linearGradient id="paint7_linear_121_370" x1="368.969" y1="323.332" x2="418.907" y2="323.332" gradientUnits="userSpaceOnUse">
<stop stop-color="#F71D69"/>
<stop offset="1" stop-color="#F8C648"/>
</linearGradient>
<linearGradient id="paint8_linear_121_370" x1="368.969" y1="354.927" x2="520.21" y2="354.927" gradientUnits="userSpaceOnUse">
<stop stop-color="#4B45BD"/>
<stop offset="1" stop-color="#58CAEA"/>
</linearGradient>
<linearGradient id="paint9_linear_121_370" x1="-1112.05" y1="391.037" x2="416.054" y2="391.037" gradientUnits="userSpaceOnUse">
<stop stop-color="#4B45BD"/>
<stop offset="1" stop-color="#58CAEA"/>
</linearGradient>
<linearGradient id="paint10_linear_121_370" x1="420.334" y1="391.037" x2="467.419" y2="391.037" gradientUnits="userSpaceOnUse">
<stop stop-color="#4B45BD"/>
<stop offset="1" stop-color="#58CAEA"/>
</linearGradient>
<linearGradient id="paint11_linear_121_370" x1="473.126" y1="391.037" x2="-1110.62" y2="391.037" gradientUnits="userSpaceOnUse">
<stop stop-color="#4B45BD"/>
<stop offset="1" stop-color="#58CAEA"/>
</linearGradient>
<linearGradient id="paint12_linear_121_370" x1="226.083" y1="498.676" x2="334.564" y2="498.676" gradientUnits="userSpaceOnUse">
<stop stop-color="#4B45BD"/>
<stop offset="1" stop-color="#58CAEA"/>
</linearGradient>
<linearGradient id="paint13_linear_121_370" x1="229.925" y1="512.62" x2="340.772" y2="512.62" gradientUnits="userSpaceOnUse">
<stop stop-color="#F71F68"/>
<stop offset="1" stop-color="#F9C448"/>
</linearGradient>
<linearGradient id="paint14_linear_121_370" x1="332.877" y1="505.064" x2="397.32" y2="428.813" gradientUnits="userSpaceOnUse">
<stop stop-color="#4B45BD"/>
<stop offset="1" stop-color="#58CAEA"/>
</linearGradient>
<linearGradient id="paint15_linear_121_370" x1="168.276" y1="504.454" x2="232.719" y2="428.203" gradientUnits="userSpaceOnUse">
<stop stop-color="#4B45BD"/>
<stop offset="1" stop-color="#58CAEA"/>
</linearGradient>
<linearGradient id="paint16_linear_121_370" x1="391.032" y1="520.38" x2="395.35" y2="444.614" gradientUnits="userSpaceOnUse">
<stop stop-color="#4B45BD"/>
<stop offset="1" stop-color="#58CAEA"/>
</linearGradient>
<linearGradient id="paint17_linear_121_370" x1="350.491" y1="507.882" x2="406.536" y2="441.568" gradientUnits="userSpaceOnUse">
<stop stop-color="#F71F68"/>
<stop offset="1" stop-color="#F9C448"/>
</linearGradient>
<linearGradient id="paint18_linear_121_370" x1="183.961" y1="505.158" x2="246.305" y2="431.392" gradientUnits="userSpaceOnUse">
<stop stop-color="#F71F68"/>
<stop offset="1" stop-color="#F9C448"/>
</linearGradient>
<clipPath id="clip0_121_370">
<rect width="761" height="522.884" fill="white"/>
</clipPath>
<clipPath id="clip1_121_370">
<rect width="178.459" height="361.583" fill="white" transform="translate(65.0101 161.301)"/>
</clipPath>
<clipPath id="clip2_121_370">
<rect width="191.843" height="361.699" fill="white" transform="translate(500.96 161.301)"/>
</clipPath>
<clipPath id="clip3_121_370">
<rect width="234.227" height="237.72" fill="white" transform="translate(328.874 284.965)"/>
</clipPath>
<clipPath id="clip4_121_370">
<rect width="234.227" height="95.0585" fill="white" transform="translate(183.558 427.448)"/>
</clipPath>
</defs>
</svg>
