<svg width="88" height="271" viewBox="0 0 88 271" fill="none" xmlns="http://www.w3.org/2000/svg">
<g clip-path="url(#clip0_132_2691)">
<path d="M30.0031 250.997L23.1036 252.565C23.1036 252.565 21.431 258.001 20.6469 260.928C20.5947 261.085 20.4379 261.607 20.3333 261.921C20.2288 262.444 20.1765 262.914 20.1765 263.437C20.3333 266.05 21.3264 268.298 23.6263 269.448C26.1875 270.754 28.1737 271.957 30.8917 269.448C33.6097 266.939 34.0801 265.371 32.9302 261.032C31.7803 256.694 30.0031 251.049 30.0031 250.997Z" fill="#4B49BB"/>
<path d="M70.0414 260.039C65.3895 258.576 63.4033 252.826 63.4033 252.826L54.0471 252.355C54.0471 252.355 53.838 258.21 53.5766 261.398C53.263 265.632 54.0471 267.514 56.8696 267.252C60.633 266.939 76.0001 268.298 78.4045 266.782C81.6452 264.848 74.4321 261.398 70.0414 260.039Z" fill="#4B49BB"/>
<path d="M15.5769 119.069C15.5769 119.069 12.0748 123.878 10.9772 136.841C9.87953 149.804 12.3362 174.422 13.4861 179.179C14.636 183.935 19.2357 228.417 20.3856 231.657C21.5356 234.898 23.1036 252.617 23.1036 252.617L30.5259 252.826C30.5259 252.826 32.7212 229.723 32.7212 223.608C32.7212 217.492 35.8051 159.63 35.596 155.396C35.3869 151.163 36.38 152.522 36.38 152.522C36.38 152.522 42.8614 173.22 44.7954 176.67C46.7293 180.12 50.1791 186.863 50.1791 186.863C50.1791 186.863 50.9631 208.554 51.904 221.099C52.8448 233.643 53.8379 253.401 53.8379 253.401L63.8214 253.192C63.8214 253.192 66.1212 220.158 66.1212 213.206C66.1212 206.254 68.212 189.581 68.212 187.647C68.212 185.713 61.7306 151.947 61.7306 151.947L57.1832 119.017L15.5769 119.069Z" fill="url(#paint0_linear_132_2691)"/>
<path d="M27.3375 10.0357C23.94 11.2901 19.6017 28.1731 19.6017 28.1731L19.5494 28.1208L17.6677 30.0025L18.4518 33.5568L21.7447 89.2235L38.7845 85.5647L53.6812 69.7794L62.9851 74.17C62.9851 74.17 63.7169 94.3982 63.8214 95.4958C63.926 96.5935 65.494 127.171 65.494 129.157C65.5463 131.3 74.6412 140.918 76.157 139.872C80.6521 136.736 73.1776 130.934 71.4005 129.523C70.3551 128.687 68.1075 100.252 67.9507 96.9071C67.7939 93.5619 73.1253 85.042 63.8737 73.8041C57.131 65.5978 53.4721 44.5333 47.8271 20.5941C44.8477 8.15399 43.0706 4.44287 40.1435 4.44287C37.4778 4.44287 33.8189 7.63129 27.3375 10.0357Z" fill="url(#paint1_linear_132_2691)"/>
<path d="M24.4627 57.4439C24.4105 57.6007 17.9814 60.6323 15.2111 64.0298C12.4408 67.4273 10.1933 72.3406 10.1933 72.3406C10.1933 72.3406 6.11625 81.9581 3.29372 89.0667C1.77791 92.8824 -3.18766 108.511 2.77103 109.086C8.4161 109.609 20.9084 96.3322 22.8424 93.8232L24.9854 89.0145C25.1422 88.3872 21.6402 81.9059 21.7447 81.3309C21.8493 80.3901 30.0033 75.6336 31.2577 78.4561C31.6759 79.3969 32.7735 82.1149 33.0872 82.9512C33.8712 84.9897 22.0061 88.9622 22.0061 90.7916C22.0061 93.0392 21.013 101.35 19.3926 105.427C17.7723 109.504 15.3156 119.174 15.3156 119.174L57.0265 119.278C57.0265 119.278 55.6152 100.723 56.1902 94.555C56.1902 94.555 57.9673 74.3268 59.0127 72.3406C60.0581 70.3544 61.8352 97.3253 61.5739 102.866C61.3648 106.734 64.8668 129.941 65.86 130.778C67.4803 132.032 71.2959 129.523 71.2959 129.523C71.2959 129.523 71.1391 104.068 70.9823 99.8342C70.8255 95.6004 71.0869 61.3641 65.4941 55.1963C59.9013 49.0285 58.3855 49.1853 53.7335 50.8057C49.0815 52.426 46.7817 53.9941 40.4571 55.0395C36.5892 55.719 32.5645 55.1963 28.9579 53.6282C29.951 50.0216 27.8602 56.1371 28.1216 54.4645" fill="url(#paint2_linear_132_2691)"/>
<path d="M30.6304 0.470307C30.6304 0.470307 22.3196 0.783922 19.9675 8.88565C17.6153 16.9874 17.2495 28.3821 17.1972 30.1592C17.0927 32.0409 18.0858 44.7946 17.0404 48.3489C16.0995 51.4851 13.4338 57.2869 11.8135 61.3117C11.1862 62.8797 10.7158 64.5523 10.4022 66.225L10.1931 67.584C10.6113 68.9952 12.1271 69.8315 13.5906 69.3611C13.6952 69.3088 13.7997 69.3088 13.852 69.2566C14.6883 68.8907 15.4723 68.4725 16.2563 68.0021C18.7653 66.4863 21.9537 62.4616 24.4626 61.2071C27.1283 59.9004 30.16 53.8372 30.5781 53.3667C30.9963 52.8963 30.8394 51.3805 30.8917 49.917C31.1531 42.3379 29.7418 35.3861 27.9646 31.7273C26.1875 28.0684 22.1105 20.9076 24.933 16.7783C27.7556 12.649 33.662 9.35607 33.9233 8.36296C34.1847 7.36984 34.3415 12.3354 37.4776 14.1126C40.6138 15.8897 45.0044 20.6462 45.0044 21.6916C45.0044 22.737 46.0498 26.1345 43.0704 32.0409C40.0911 37.9473 37.739 45.4741 41.8683 51.1192C45.9975 56.7642 56.3991 64.6046 57.1309 66.3818C57.8626 68.1589 57.1309 76.0516 56.8695 80.4945C56.6082 84.9373 65.2849 72.9154 64.9712 67.1135C64.6576 61.3117 65.703 58.8027 59.7966 49.9692C53.8902 41.1357 50.0222 25.8731 49.8654 22.162C49.7086 18.4509 47.9315 8.20615 44.3772 5.2268C41.3456 2.71788 40.6661 0.26123 34.3415 0.26123C33.087 0.26123 31.8326 0.365769 30.6304 0.470307Z" fill="url(#paint3_linear_132_2691)"/>
<g opacity="0.07">
<path d="M27.4419 78.1949C26.1875 78.7176 24.9853 79.2925 23.8354 79.972L22.5809 80.5993C22.5809 80.5993 9.30452 94.4506 9.87948 93.7188C12.4407 90.5304 20.3856 73.5952 23.0513 69.675C25.8739 65.598 27.4419 67.2183 30.5258 78.0381" fill="white"/>
</g>
<g opacity="0.07">
<path d="M26.8146 252.513C26.8669 252.67 26.8669 252.826 26.8669 252.983C26.9192 254.133 26.8669 257.008 25.6125 258.837C24.0444 261.242 27.7555 266.521 27.7555 267.828C27.7555 269.134 26.0306 270.336 24.8284 269.971C23.6262 269.605 18.6084 266.782 20.5946 260.719C21.3786 258.262 21.8491 256.119 22.3195 254.76C22.5808 254.081 22.7899 253.401 22.999 252.722C23.0513 252.408 23.0513 252.095 23.0513 251.781C22.999 251.363 22.999 250.892 22.9467 250.422C22.6854 248.07 12.7542 174.736 12.3883 171.914C12.0747 169.405 10.6112 153.881 10.768 144.786C10.6635 144.002 10.6635 143.218 10.7157 142.486C10.7157 142.277 10.8203 141.388 10.768 141.022C10.8203 140.186 10.8725 139.35 10.9771 138.514C10.8203 137.834 10.9248 137.834 10.9771 136.736C11.0293 135.639 10.9771 135.012 11.0816 134.332C12.0747 128.164 14.3223 121.16 15.42 119.174L15.7336 118.076C15.7336 118.076 18.2425 108.772 19.0788 107.048C19.8106 105.479 21.9013 97.2732 21.6923 95.5483C21.5877 94.6074 24.933 90.9486 24.933 90.9486L25.6125 90.3736C25.9261 90.3214 26.292 90.3736 26.6056 90.4782C27.3373 90.7918 30.1599 88.3351 30.6303 89.9032C33.9755 100.618 35.3345 105.166 29.4281 111.543C23.5217 117.919 28.9577 123.617 29.0622 128.112C29.3236 139.193 23.9398 137.991 23.6262 144.89C23.3126 151.79 24.8284 156.756 24.933 160.362C25.1943 172.227 25.0375 174.579 24.4103 179.231C23.783 183.883 20.5946 192.717 24.1489 210.07C27.7032 227.423 27.1805 228.992 26.8146 238.818C26.4488 248.645 26.8146 252.513 26.8146 252.513Z" fill="black"/>
</g>
<path d="M21.3264 73.2292L21.431 73.1769C21.8491 72.9678 24.3058 71.7133 26.0306 71.0338C27.9646 70.2498 30.3167 76.8357 30.8917 78.1425C30.944 78.247 30.944 78.247 30.5258 78.2993C29.1145 78.4561 27.7033 78.7174 26.3443 79.0833C24.358 79.5537 22.1105 81.1218 22.0059 81.1741C21.9014 81.2263 21.3264 79.9719 20.1765 77.0448C19.9152 76.3653 19.3402 74.5881 19.8629 74.17L21.3264 73.2292Z" fill="white"/>
<path opacity="0.07" d="M36.3276 38.2611C37.5821 38.7315 39.0456 38.4179 39.9865 37.4248C41.6591 35.7521 39.3593 41.554 39.7251 42.8608C40.091 44.1675 36.3276 38.2611 36.3276 38.2611Z" fill="black"/>
<path d="M24.9854 88.544C24.9854 88.544 32.878 83.3694 32.9825 83.5784C33.1916 84.0489 33.8711 85.9305 33.8711 85.9305C33.8711 85.9305 34.4983 87.1327 34.2893 87.4986C34.0802 87.8645 26.6057 91.0529 26.6057 91.0529C26.2921 91.0007 26.0307 90.8439 25.9262 90.5825C25.5603 89.9553 25.2467 89.2758 24.9854 88.544Z" fill="white"/>
</g>
<defs>
<linearGradient id="paint0_linear_132_2691" x1="10.7014" y1="186.209" x2="68.212" y2="186.209" gradientUnits="userSpaceOnUse">
<stop stop-color="#4B45BD"/>
<stop offset="1" stop-color="#58CAEA"/>
</linearGradient>
<linearGradient id="paint1_linear_132_2691" x1="17.6677" y1="72.1972" x2="77.5746" y2="72.1972" gradientUnits="userSpaceOnUse">
<stop stop-color="#F87B58"/>
<stop offset="0.5" stop-color="#F8C548"/>
<stop offset="1" stop-color="#F89C51"/>
</linearGradient>
<linearGradient id="paint2_linear_132_2691" x1="-0.0878908" y1="90.4897" x2="71.2959" y2="90.4897" gradientUnits="userSpaceOnUse">
<stop stop-color="#F8C547"/>
<stop offset="1" stop-color="#F71D69"/>
</linearGradient>
<linearGradient id="paint3_linear_132_2691" x1="10.1931" y1="40.8601" x2="64.9795" y2="40.8601" gradientUnits="userSpaceOnUse">
<stop stop-color="#F8C547"/>
<stop offset="1" stop-color="#F71D69"/>
</linearGradient>
<clipPath id="clip0_132_2691">
<rect width="87.5" height="270.859" fill="white"/>
</clipPath>
</defs>
</svg>
