<svg width="123" height="313" viewBox="0 0 123 313" fill="none" xmlns="http://www.w3.org/2000/svg">
<g clip-path="url(#clip0_132_2679)">
<path d="M120.561 309.03C118.81 307.904 116.746 306.466 111.619 305.466C107.429 304.715 104.928 298.149 104.928 298.149H95.1731C95.1731 298.149 94.2976 309.03 94.7354 309.905C95.1731 310.781 95.4232 311.719 97.6743 312.407C99.9254 313.094 119.685 312.844 120.561 312.657C121.436 312.469 123.875 311.156 120.561 309.03Z" fill="#4B49BB"/>
<path d="M7.12909 204.415C5.81593 206.353 0.0630555 225.238 0.00052424 226.176C-0.062007 227.114 0.438243 229.803 3.43974 227.301C5.06556 225.926 7.06656 224.425 9.50528 219.798C11.5063 216.046 18.5098 215.608 18.5098 215.608L21.5113 206.353C21.5113 206.353 11.3812 202.226 10.3807 202.351C9.38022 202.476 8.44225 202.476 7.12909 204.415Z" fill="#4B49BB"/>
<path d="M71.3489 170.148C71.0988 170.211 70.7861 172.024 70.7236 172.274C69.2854 176.901 55.7161 218.172 55.7161 219.923C55.7161 221.674 26.639 208.542 21.9492 206.479C21.574 206.291 21.1988 206.479 21.0112 206.791C20.0732 208.792 17.3844 214.733 18.3224 215.421C19.5105 216.234 50.0883 238.057 52.5895 238.682C55.0908 239.308 58.8426 242.434 65.0958 234.93C70.4734 228.49 85.4809 204.103 89.6705 197.287C89.8581 196.974 90.2959 196.849 90.6085 197.037C90.7961 197.162 90.9212 197.349 90.9837 197.599C91.7341 204.165 92.0467 229.615 94.2353 236.431C96.4239 243.247 93.2974 250.563 93.2974 260.568L95.1108 297.399C95.1108 297.774 95.4234 298.087 95.7986 298.087L104.24 298.275C104.616 298.275 104.928 298.025 104.991 297.649C105.553 291.709 111.119 247.187 111.682 240.246C112.307 232.742 115.934 169.773 114.933 165.958C114.183 163.582 75.9762 169.398 71.3489 170.148Z" fill="url(#paint0_linear_132_2679)"/>
<path d="M74.4753 59.28C74.4753 59.28 76.6014 50.7758 78.2898 50.7758C79.9781 50.7758 90.2332 52.0264 91.4839 58.0294C92.7345 64.0324 97.4243 67.4091 97.4243 74.6627C97.4243 81.9164 100.426 85.293 100.426 85.293C100.426 85.293 103.803 74.6002 106.304 69.9729C108.805 65.3456 113.245 62.4066 113.245 59.28C113.245 56.1535 109.493 20.6357 109.18 19.6977C108.868 18.7598 107.93 13.132 110.118 9.94286C110.118 9.94286 116.872 4.37758 117.747 2.12645C118.435 0.250512 120.623 -0.81252 121.874 1.37607C123.125 3.56467 117.935 9.50514 117.059 11.8813C116.309 14.1325 115.746 16.4461 115.496 18.8223C115.496 19.4476 114.245 28.8898 114.245 33.5797C114.245 38.2695 117.059 53.0894 117.059 57.7793C117.059 62.4691 106.679 81.2911 105.741 84.7928C104.803 88.2946 74.6004 121.249 73.9751 122.187C73.3498 123.124 70.2232 130.378 70.2232 132.879C70.2232 135.381 70.2232 143.572 71.4738 142.009C72.7245 140.446 77.9146 127.939 78.8525 126.376C79.7905 124.813 87.2317 123.312 90.7335 122.374C94.2352 121.436 99.3628 123.312 98.7375 125.501C98.1122 127.689 87.9196 131.816 84.6679 132.629C82.6044 133.129 73.6624 143.009 73.0371 145.823C72.4118 148.637 64.2202 144.573 64.2202 140.508C64.2202 136.444 65.1582 115.683 66.4088 112.869C67.6594 110.055 73.3498 97.7993 76.4763 91.4837C79.6029 85.168 72.7245 82.0414 71.4738 77.6642C70.2232 73.287 74.4753 59.28 74.4753 59.28Z" fill="url(#paint1_linear_132_2679)"/>
<path d="M101.489 79.3526C101.489 79.3526 109.68 64.6578 110.493 60.9684C111.306 57.2791 109.243 19.5727 109.243 19.5727L115.558 18.6348C115.558 18.6348 121.624 53.5897 122.437 57.6543C123.25 61.7188 120.311 70.4732 117.497 75.4132C114.683 80.3531 106.929 101.051 106.929 103.49C106.929 105.928 107.429 129.128 108.68 133.63C109.931 138.132 114.996 166.084 114.996 166.084L71.2237 170.211C71.2237 170.211 73.1622 158.017 73.0371 153.952C72.7245 145.01 70.2858 138.382 76.789 134.193C81.1662 131.441 85.2933 132.754 89.9831 130.441C95.4233 127.752 96.674 125.563 96.9866 124.062C97.1742 123.187 95.7985 121.186 87.3568 124.313C84.5429 125.376 78.8525 125.313 78.7275 128.94C78.6649 132.004 82.6044 138.632 77.852 141.634C77.852 141.634 72.4118 154.453 67.3468 156.454C62.9696 158.142 57.7795 153.515 57.9046 147.449C58.0296 140.196 58.4673 126.314 61.7815 120.248C65.0957 114.183 74.1627 98.6123 75.7885 97.3616C77.4143 96.111 82.3543 102.051 88.1072 101.239C93.86 100.426 96.2362 97.7368 97.4869 94.9229C98.7375 92.109 101.489 79.3526 101.489 79.3526Z" fill="url(#paint2_linear_132_2679)"/>
<path d="M83.2298 52.6515C85.7936 56.7786 89.1078 60.3429 92.9847 63.2819C99.613 68.4094 93.0472 82.6666 92.7346 89.7951C92.4845 95.4855 95.8611 103.364 104.053 108.68C109.931 112.557 105.804 121.311 105.804 125.688C105.804 130.065 115.308 119.497 115.684 114.495C116.121 108.304 114.558 103.927 110.181 98.9247C106.116 94.2348 101.364 76.6636 100.051 68.3469C99.9257 67.4715 99.8631 66.6585 99.9257 65.7831C100.051 62.8441 99.6755 53.527 91.2964 48.2743C81.2914 42.0212 75.0382 47.7741 70.9737 51.2133C66.0337 55.4029 64.0327 67.0963 65.2833 85.2303C66.534 103.364 63.4074 113.682 61.2813 118.935C56.4039 130.878 69.6605 122.499 72.0993 115.621C75.2258 106.804 77.4144 106.116 81.8541 99.2373C83.605 96.5485 81.2914 87.4189 79.3529 83.6045C75.6635 76.2258 73.5375 73.1618 73.5375 68.1593C73.5375 63.1568 79.4779 54.5275 83.2298 52.6515Z" fill="url(#paint3_linear_132_2679)"/>
<path opacity="0.07" d="M85.1682 85.0422C85.1682 85.0422 92.2343 85.48 94.1727 80.9777C94.3603 80.4775 93.0472 94.7346 92.672 92.8587C92.1717 90.9202 85.1682 85.0422 85.1682 85.0422Z" fill="black"/>
<path opacity="0.07" d="M72.7246 117.997C72.7246 117.997 71.0988 128.127 70.2233 132.754C69.7231 135.255 69.4104 137.757 69.3479 140.32C69.3479 140.32 75.3509 132.817 77.2894 129.815C78.4775 127.939 74.8507 128.877 74.538 121.999C74.2253 115.12 74.2879 110.681 74.2879 110.681L72.7246 117.997Z" fill="black"/>
<path opacity="0.07" d="M73.2248 150.575C73.2248 150.575 78.6025 145.323 78.8526 142.571C79.1653 138.944 81.729 139.132 81.729 141.383C81.729 143.634 77.727 160.455 80.1658 164.895C82.6045 169.335 84.5429 169.272 84.5429 169.272L71.4114 170.21L73.2248 150.575Z" fill="black"/>
<path opacity="0.07" d="M84.4803 169.21C84.4803 169.21 85.2307 182.592 80.4783 187.031C70.786 196.098 76.4763 207.979 72.1617 213.169C68.5349 217.484 67.5969 229.928 58.905 232.679C55.4658 233.805 43.0846 226.238 40.5834 225.363C35.2682 223.55 31.5163 213.357 14.9456 208.104C11.0686 206.854 25.1382 208.167 25.1382 208.167L55.6534 220.798L71.4113 170.21L84.4803 169.21Z" fill="black"/>
</g>
<defs>
<linearGradient id="paint0_linear_132_2679" x1="18.1267" y1="231.833" x2="114.997" y2="231.833" gradientUnits="userSpaceOnUse">
<stop stop-color="#F8C547"/>
<stop offset="1" stop-color="#F71D69"/>
</linearGradient>
<linearGradient id="paint1_linear_132_2679" x1="21.1362" y1="86.3722" x2="92.8046" y2="86.3722" gradientUnits="userSpaceOnUse">
<stop stop-color="#F87B58"/>
<stop offset="0.5" stop-color="#F8C548"/>
<stop offset="1" stop-color="#F89C51"/>
</linearGradient>
<linearGradient id="paint2_linear_132_2679" x1="64.305" y1="126.107" x2="154.669" y2="63.2132" gradientUnits="userSpaceOnUse">
<stop stop-color="#4B45BD"/>
<stop offset="1" stop-color="#58CAEA"/>
</linearGradient>
<linearGradient id="paint3_linear_132_2679" x1="60.2124" y1="86.1083" x2="115.754" y2="86.1083" gradientUnits="userSpaceOnUse">
<stop stop-color="#4B45BD"/>
<stop offset="1" stop-color="#7A5BF5"/>
</linearGradient>
<clipPath id="clip0_132_2679">
<rect width="122.5" height="312.844" fill="white"/>
</clipPath>
</defs>
</svg>
